<?xml version="1.0" encoding="utf-8"?>
<!-- Generator: Adobe Illustrator 18.0.0, SVG Export Plug-In . SVG Version: 6.00 Build 0)  -->
<!DOCTYPE svg PUBLIC "-//W3C//DTD SVG 1.1//EN" "http://www.w3.org/Graphics/SVG/1.1/DTD/svg11.dtd" [
	<!ENTITY ns_flows "http://ns.adobe.com/Flows/1.0/">
	<!ENTITY ns_extend "http://ns.adobe.com/Extensibility/1.0/">
	<!ENTITY ns_ai "http://ns.adobe.com/AdobeIllustrator/10.0/">
	<!ENTITY ns_graphs "http://ns.adobe.com/Graphs/1.0/">
]>
<svg version="1.1" xmlns:x="&ns_extend;" xmlns:i="&ns_ai;" xmlns:graph="&ns_graphs;"
	 xmlns="http://www.w3.org/2000/svg" xmlns:xlink="http://www.w3.org/1999/xlink" xmlns:a="http://ns.adobe.com/AdobeSVGViewerExtensions/3.0/"
	 x="0px" y="0px" viewBox="0 0 1124.6 637.9" enable-background="new 0 0 1124.6 637.9" xml:space="preserve">
<g id="Layer_2" display="none">
</g>
<g id="Layer_1">
	<path fill="#EF4C6A" d="M397.7,105.6l-17.7-45.1l11.5-44.5c0.4-1.5-0.8-2.9-2.3-2.8l-90.2,6.1l3.9,56.6
		C223.2,74.5,139.2,9.5,62.1,45.6l3.6,53l-32.1,2.2c-1.5,0.1-2.5,1.6-1.9,3.1L49.4,149l-11.5,44.5c-0.4,1.5,0.8,2.9,2.3,2.8
		l90.2-6.1l-3.7-54.6c79.8,3.5,163.7,67.9,240.5,28.2l-3.6-53l32.1-2.2C397.2,108.5,398.2,107,397.7,105.6z"/>
	<g>
		<path fill="#5C48A2" d="M338.4,306.9c14.9,3.6,24.9,5.3,24.9,5.3l-15-19.1l25.6-16.1c0,0-8.7-3.1-21.5-9.3
			c-10.1-4.9-22.1,0.2-25.6,10.8l-1.6,4.9C322,293.6,328.1,304.4,338.4,306.9z"/>
		<g>
			<path fill="#F7A0B0" d="M274.4,487C274.4,487,274.4,487,274.4,487c1,9.1,3.3,18,7.1,26.5c3.3,0.2,7.6,0.4,12.8,0.5l5.3-6.1
				l8.4,6.2c2.2,0,4.5-0.1,6.9-0.1c0.4-5.5,1.3-14.9,3.7-24.5c0,0,0,0,0,0l-7.5-0.4L274.4,487z"/>
			<path fill="#F7A0B0" d="M247.8,519.4c0,0-7.3,3.6-14.3,6.7c7.8,8.4,20.5,14.5,34.9,21.7c-0.1,0,6-35.1,6-35.1
				c-15.1-6.1-30.6-13.8-30.6-13.8L247.8,519.4z"/>
			<path fill="#F7A0B0" d="M357.5,259.7c-1.6-1.1-2.4-1.7-2.4-1.7l0.1,1.2C355.9,259.4,356.7,259.5,357.5,259.7z"/>
			<path fill="#F7A0B0" d="M587.5,127.1c-2.4-0.3-4.7-0.2-6.8,0.5c-6,1.9-8.6,5.3-11.6,9.1c-0.6,0.7-1.1,1.5-1.8,2.3
				c-0.7,0.9-0.6,2.1,0.3,2.8s2.1,0.6,2.8-0.3c0.6-0.8,1.2-1.6,1.8-2.3c2.8-3.6,4.8-6.2,9.6-7.8c1.5-0.5,3.2-0.6,5.1-0.3
				c5,0.7,9.7,4.3,11.6,9c1.9,4.7,1.1,10.5-2,14.5c-0.7,0.9-0.5,2.1,0.3,2.8c0.4,0.3,0.8,0.4,1.2,0.4c0.6,0,1.2-0.3,1.6-0.8
				c4-5.2,5-12.4,2.6-18.5C599.7,132.6,594,128.1,587.5,127.1z"/>
			<path fill="#F7A0B0" d="M891.1,547.1c-10.2,0-25.8-2.1-45.4-12.9c0,0,0,0,0,0l-5.6,14.9l-3.8,10.1l-5.3,14.2
				c14.9,2.1,27.2,2.2,35.5,1.9c6.9-0.2,10.9-0.8,10.9-0.8l-13.1-17C864.1,557.5,880,551.4,891.1,547.1z"/>
			<path fill="#F7A0B0" d="M490.3,165.3c-1.1-0.9-2.4-1.4-3.7-1.5c0.9,2.1,0.4,4.6-1.4,6.1c-1.3,1.1-2.9,1.4-4.4,1.1
				c0,1.5-0.6,3.1-1.8,4.1c-2,1.7-4.9,1.6-6.8,0c-0.3,0.8-0.8,1.5-1.5,2.1c-2.2,1.9-5.5,1.6-7.4-0.6c-0.3,0.8-0.8,1.6-1.5,2.3
				c-2.2,1.9-5.5,1.6-7.4-0.6c-0.2-0.2-0.3-0.4-0.4-0.6l1.6,9c0.5,0,1,0.1,1.5,0.1c0.2-1.1,0.8-2.1,1.7-2.8c2.2-1.9,5.5-1.6,7.4,0.6
				c0.3-0.8,0.8-1.6,1.5-2.3c2-1.7,4.9-1.6,6.8,0c0.3-0.8,0.8-1.5,1.5-2.1c1.3-1.1,2.9-1.4,4.4-1.1c0-1.5,0.6-3.1,1.8-4.1
				c2.2-1.9,5.5-1.6,7.4,0.6c0,0,0,0.1,0.1,0.1c0.5-0.5,0.9-0.9,1.3-1.4C493.1,171.5,492.9,167.6,490.3,165.3z"/>
			<path fill="#F7A0B0" d="M830.8,573.4C830.8,573.4,830.8,573.4,830.8,573.4C830.8,573.4,830.8,573.4,830.8,573.4L830.8,573.4z"/>
			<path fill="#F7A0B0" d="M356.5,288l17.4-11c0,0-7.3-2.6-18.3-7.8c-1-0.5-2.1-1-3.1-1.5c-3.8-1.9-7.9-2.3-11.7-1.5
				c-0.1,0-0.3,0.1-0.4,0.1c-0.4,0.1-0.8,0.2-1.2,0.3c-5.6,1.6-10.4,5.9-12.3,12l-1.6,4.9c-3.2,9.8,2.4,20.2,12.1,23.1
				c0.3,0.1,0.6,0.2,0.9,0.3c0,0,0.1,0,0.1,0c0.1,0,0.2,0.1,0.3,0.1c9.2,2.2,16.5,3.7,20.7,4.5c2.5,0.5,3.9,0.7,3.9,0.7l-15-19.1
				l7.8-4.9L356.5,288z"/>
		</g>
		<g>
			<path fill="#5C48A2" d="M840,549.1l5.6-14.9c0,0,0,0,0,0c-16.1-8.8-34.8-23.3-55.7-47.1c-32.4-37.1-39.9-83.8-42.7-113.5
				c1.7-4.9,3.3-9.8,4.8-14.9c1.3-4.2,2.4-8.4,3.3-12.5c0,0,0,0,0,0c0,0,5.3-18,4.9-46.3c0,0,0,0,0-0.1c5.5-3.3,9.5-6,11.9-7.8
				c8.4-6.4-11.3-47-14.7-55.1c-2-4.7-5.6-3.8-8.2-2.3c-9.9-30.3-28-63.8-59.8-96.7c-2.8-2.9-5.7-5.8-8.7-8.7
				c-4.8-4.6-9.8-9.1-15.1-13.7c-5.7-4.8-11.5-9-17.5-12.6c-1.4-0.9-2.8-1.7-4.3-2.5c-9.7-5.4-19.7-9.3-29.9-12.1
				c-7.8-2.1-15.7-3.5-23.6-4.3c-74.1-7.5-146.2,38.4-146.2,38.4l2.2,12.8l1,5.6l1.9,11l-2.8,4.2c-5.6,1.5-6.9,6.9-5.4,11.5
				c2.3,7.1,11,6.5,12.1,6.4l0.6,3.6l1.6,9l-1.6-9c0.1,0.2,0.3,0.4,0.4,0.6c1.9,2.2,5.2,2.5,7.4,0.6c0.7-0.6,1.2-1.4,1.5-2.3
				c1.9,2.2,5.2,2.5,7.4,0.6c0.7-0.6,1.2-1.3,1.5-2.1c1.9,1.6,4.8,1.7,6.8,0c1.3-1.1,1.9-2.6,1.8-4.1c1.5,0.3,3.1-0.1,4.4-1.1
				c1.8-1.5,2.3-4,1.4-6.1c1.3,0.1,2.6,0.6,3.7,1.5c2.6,2.3,2.9,6.2,0.6,8.8c-0.4,0.5-0.9,1-1.3,1.4c0,0,0-0.1-0.1-0.1
				c-1.9-2.2-5.2-2.5-7.4-0.6c-1.3,1.1-1.9,2.6-1.8,4.1c-1.5-0.3-3.1,0.1-4.4,1.1c-0.7,0.6-1.2,1.3-1.5,2.1c-1.9-1.6-4.8-1.7-6.8,0
				c-0.7,0.6-1.2,1.4-1.5,2.3c-1.9-2.2-5.2-2.5-7.4-0.6c-0.9,0.8-1.5,1.8-1.7,2.8c-0.5,0-1-0.1-1.5-0.1c0,0-6.7,0.2-5.3,5.6
				c1,3.7,6.1,7.8,10.8,5c3.1-1.8,8.8-4.8,16.1-3.3c13.1,6.3,26.3,20.2,20.3,51c4.2,0.9,10.1,9.3,16,19.8c-2.3-0.8-7.5,15-9.2,30.3
				c-10.6,4.5-25.3,7.3-47.4,4.1c-23.4-3.4-45.3-11.3-62.7-19.4l-28,37.1c18.6,15,42.8,32,66.7,41.9c20,8.3,38,12.7,54.1,14.6
				c-2.5,3-5.3,5.9-8.2,8.7c-1.9,1.5-3.8,3.2-5.7,4.8c-8.6,6.6-18.6,10.7-28.7,7.7c-14.3-4.2-28.3-11.4-43-16.8c0,0,0,0-0.1,0
				c-0.1,0-0.2-0.1-0.2-0.1c-0.6-0.2-1.2-0.4-1.8-0.7c-0.1,0-0.2-0.1-0.3-0.1c-0.7-0.3-1.4-0.5-2.2-0.7c-0.2-0.1-0.4-0.1-0.6-0.2
				c-0.5-0.2-1.1-0.3-1.6-0.5c-0.3-0.1-0.5-0.2-0.8-0.2c-0.5-0.2-1-0.3-1.5-0.5c-0.2-0.1-0.5-0.1-0.7-0.2c-0.7-0.2-1.4-0.4-2.1-0.6
				c0,0-0.1,0-0.1,0c-0.7-0.2-1.5-0.4-2.2-0.6c-0.2-0.1-0.5-0.1-0.7-0.2c-0.5-0.1-1.1-0.3-1.6-0.4c-0.3-0.1-0.5-0.1-0.8-0.2
				c-0.5-0.1-1.1-0.2-1.6-0.3c-0.2,0-0.5-0.1-0.7-0.1c-0.8-0.2-1.5-0.3-2.3-0.4c-0.1,0-0.1,0-0.2,0c-0.7-0.1-1.4-0.2-2.1-0.3
				c-0.2,0-0.5-0.1-0.7-0.1c-0.5-0.1-1.1-0.2-1.6-0.2c-0.3,0-0.5-0.1-0.8-0.1c-0.6-0.1-1.1-0.1-1.7-0.2c-0.2,0-0.4,0-0.7-0.1
				c-0.8-0.1-1.6-0.1-2.4-0.2c-0.1,0-0.2,0-0.4,0c-0.7,0-1.3-0.1-2-0.1c-0.3,0-0.5,0-0.8,0c-0.6,0-1.1,0-1.7,0c-0.3,0-0.6,0-0.8,0
				c-0.6,0-1.2,0-1.8,0c-0.2,0-0.4,0-0.6,0c-0.8,0-1.6,0.1-2.4,0.2c-0.2,0-0.3,0-0.5,0c-0.7,0.1-1.3,0.1-2,0.2
				c-0.3,0-0.6,0.1-0.8,0.1c-0.6,0.1-1.2,0.1-1.7,0.2c-0.3,0-0.6,0.1-0.8,0.1c-0.7,0.1-1.3,0.2-2,0.3c-0.2,0-0.4,0.1-0.6,0.1
				c-0.8,0.2-1.7,0.3-2.5,0.5c-0.2,0-0.4,0.1-0.6,0.2c-0.7,0.2-1.3,0.3-2,0.5c-0.3,0.1-0.6,0.2-0.9,0.2c-0.6,0.2-1.2,0.3-1.8,0.5
				c-0.3,0.1-0.6,0.2-0.9,0.3c-0.7,0.2-1.4,0.5-2.2,0.7c-0.2,0.1-0.3,0.1-0.5,0.2c-0.9,0.3-1.8,0.6-2.7,1c-0.2,0.1-0.5,0.2-0.7,0.3
				c-0.7,0.3-1.3,0.5-2,0.8c-0.3,0.1-0.6,0.3-0.9,0.4c-0.6,0.3-1.3,0.6-1.9,0.8c-0.3,0.1-0.6,0.3-0.9,0.4c-0.8,0.4-1.6,0.8-2.5,1.2
				c-0.1,0.1-0.2,0.1-0.3,0.2c-0.9,0.5-1.9,1-2.8,1.5c-0.3,0.1-0.6,0.3-0.8,0.5c-0.7,0.4-1.4,0.8-2,1.2c-0.3,0.2-0.7,0.4-1,0.6
				c-0.7,0.4-1.4,0.8-2,1.2c-0.3,0.2-0.6,0.4-0.9,0.6c-1,0.6-1.9,1.2-2.9,1.9C281,409.6,271,454.7,274.4,487l36.7,2.1l7.5,0.4
				c0,0,0,0,0,0h0c4.2-17.2,16.1-45.8,38.5-47.8c25-2.2,37.8,35.6,63.2,58.8c-40.1,9.8-78.2,12.9-105.4,13.5
				c-2.4,0.1-4.7,0.1-6.9,0.1c-5.1,0-9.6,0-13.7-0.1c-5.2-0.1-9.5-0.3-12.8-0.5c-4.2-0.3-6.7-0.6-7.1-0.7c0,0-6.1,35-6,35.1
				c100.2,50.2,257.4,16.3,294.8,7.2c2.3-0.5,4.6-1.1,6.9-1.7c0.9-0.2,1.3-0.4,1.3-0.4c0,0,0,0,0,0c35.9-10,78.1-32.7,114.4-72.9
				c1.3,2.2,2.7,4.3,4.1,6.4c4.8,6.9,9.7,13.2,14.8,19c0,0,0,0,0,0c0.1,0.1,0.1,0.1,0.2,0.2c1.1,1.3,2.3,2.6,3.4,3.8
				c0.1,0.1,0.2,0.2,0.3,0.4c1.1,1.3,2.3,2.5,3.5,3.7c0.2,0.2,0.4,0.4,0.6,0.6c1.1,1.2,2.3,2.3,3.4,3.4c0.2,0.2,0.4,0.4,0.6,0.6
				c1.2,1.1,2.3,2.2,3.5,3.3c0.2,0.1,0.3,0.3,0.5,0.4c1.2,1.1,2.4,2.2,3.7,3.3c0,0,0,0,0,0c1.2,1.1,2.5,2.1,3.7,3.2
				c0.2,0.1,0.3,0.3,0.5,0.4c1.2,1,2.4,1.9,3.6,2.9c0.2,0.2,0.4,0.3,0.6,0.5c1.2,0.9,2.4,1.8,3.6,2.7c0.2,0.1,0.4,0.3,0.6,0.4
				c1.2,0.9,2.5,1.8,3.7,2.7c0.1,0.1,0.2,0.1,0.3,0.2c1.2,0.9,2.5,1.7,3.7,2.5c0.1,0.1,0.2,0.2,0.3,0.2c1.2,0.8,2.5,1.6,3.7,2.4
				c0.2,0.1,0.4,0.3,0.6,0.4c1.2,0.8,2.4,1.5,3.6,2.2c0.2,0.1,0.4,0.3,0.6,0.4c1.2,0.7,2.4,1.4,3.6,2.1c0.2,0.1,0.3,0.2,0.5,0.3
				c1.3,0.7,2.5,1.4,3.8,2.1c0,0,0,0,0,0c1.3,0.7,2.5,1.3,3.8,2c0.2,0.1,0.3,0.2,0.5,0.3c1.2,0.6,2.4,1.2,3.6,1.8
				c0.2,0.1,0.4,0.2,0.6,0.3c1.2,0.6,2.4,1.1,3.6,1.7c0.2,0.1,0.4,0.2,0.6,0.3c1.2,0.5,2.4,1.1,3.7,1.6c0.1,0,0.2,0.1,0.3,0.1
				c1.2,0.5,2.4,1,3.6,1.5c0.1,0,0.2,0.1,0.3,0.1c1.2,0.5,2.4,0.9,3.6,1.4c0.2,0.1,0.4,0.1,0.6,0.2c1.2,0.4,2.3,0.9,3.5,1.3
				c0.2,0.1,0.4,0.1,0.6,0.2c1.2,0.4,2.3,0.8,3.5,1.2c0.2,0.1,0.3,0.1,0.5,0.2c1.2,0.4,2.4,0.8,3.6,1.1c0,0,0,0,0,0
				c1.2,0.4,2.4,0.7,3.6,1.1c0.2,0,0.3,0.1,0.5,0.1c1.1,0.3,2.2,0.6,3.4,0.9c0.2,0.1,0.4,0.1,0.6,0.2c1.1,0.3,2.2,0.6,3.3,0.8
				c0.2,0,0.4,0.1,0.5,0.1c1.1,0.3,2.2,0.5,3.3,0.8c0.1,0,0.2,0,0.3,0.1c1.1,0.2,2.2,0.5,3.3,0.7c0.1,0,0.2,0,0.3,0.1
				c1.1,0.2,2.2,0.4,3.2,0.6c0.2,0,0.3,0.1,0.5,0.1c1,0.2,2.1,0.4,3.1,0.6c0.2,0,0.4,0.1,0.5,0.1c1,0.2,2,0.3,3,0.5
				c0.1,0,0.3,0,0.4,0.1c1,0.2,2,0.3,3,0.4c0,0,0.1,0,0.1,0c0,0,0,0,0.1,0l0,0l5.3-14.2L840,549.1z M599.6,157.1
				c-0.4,0.5-1,0.8-1.6,0.8c-0.4,0-0.9-0.1-1.2-0.4c-0.9-0.7-1-1.9-0.3-2.8c3.1-4,3.9-9.8,2-14.5c-1.9-4.7-6.6-8.3-11.6-9
				c-1.8-0.3-3.6-0.1-5.1,0.3c-4.8,1.5-6.8,4.1-9.6,7.8c-0.6,0.7-1.2,1.5-1.8,2.3c-0.7,0.9-2,1-2.8,0.3s-1-2-0.3-2.8
				c0.6-0.8,1.2-1.5,1.8-2.3c3-3.9,5.5-7.2,11.6-9.1c2.1-0.7,4.4-0.8,6.8-0.5c6.5,0.9,12.3,5.4,14.7,11.5
				C604.7,144.7,603.6,152,599.6,157.1z"/>
		</g>
		<g>
			<path fill="#EF4C6A" d="M748.1,306.5C749.4,305.9,749.4,305.9,748.1,306.5L748.1,306.5z"/>
			<path fill="#EF4C6A" d="M375.3,270.4c-1.8-0.3-3.6-0.8-5.6-1.2c-5.8-1.4-10.5-2.9-14.3-4.3c-10.8-4-13.7-7.5-13.7-7.5l-0.9,8.7
				c3.8-0.8,7.9-0.3,11.7,1.5c1.1,0.5,2.1,1,3.1,1.5c11.1,5.3,18.3,7.8,18.3,7.8l-17.4,11l-0.4,0.2l-7.8,4.9l15,19.1
				c0,0-1.4-0.2-3.9-0.7c-4.2-0.8-11.5-2.3-20.7-4.5l-0.2,2.1c5.4,1.1,11.7,4.8,11.7,4.8c2.6,0.2,8.1,2,8.1,2s5.8,1,8.1,2
				c0,0,0.2,0,0.5,0c0,0,0.1,0,0.1,0c1.8-0.1,7.6-0.1,12.1,1.1l12.1-31l4.9-6.7l0.1-0.3l3.8-9.8C400.1,271.1,393.7,274,375.3,270.4z
				 M377.7,311.8c-0.2,0.2-0.3,0.5-0.4,0.8c-0.1,0.6-1,0.3-0.9-0.2c0.1-0.5,0.3-0.9,0.6-1.2C377.5,310.7,378.1,311.4,377.7,311.8z
				 M385.1,291c-0.1,0.4-0.2,0.7-0.3,1.1c0,0,0,0.1,0,0.1c-1.3,5.3-3.2,10.5-5.6,15.4c-0.3,0.5-1,0.1-0.8-0.5
				c2.1-4.2,3.7-8.6,5-13.1c0,0,0-0.1,0-0.1c0.3-1.1,0.6-2.1,0.8-3.2C384.3,290.2,385.2,290.5,385.1,291z"/>
			<path fill="#EF4C6A" d="M378.3,239.9c-3.1,1.3-5.3,2.9-6.9,4.7c-0.2,0.3-0.5,0.5-0.7,0.8c-1.2,1.5-2,3.1-2.5,4.6
				c1.9,0.4,3.7,0.9,5.5,1.3c0,0,0,0,0.1,0c0,0,0,0,0,0c0,0,0.1,0,0.1,0c4.7,1.1,9.7,2.4,14.6,3.5c0,0,0,0,0,0l7.3-2.9l1-0.4l7-2.8
				c0,0,0,0,0,0C403.4,247.9,395.1,234.4,378.3,239.9z"/>
			<path fill="#EF4C6A" d="M373.4,258.6c0.6,0.1,0.3,1-0.2,0.9c-1.9-0.3-3.7-0.7-5.6-1.2c0.2,1.7,0.6,3,0.8,3.8
				c0.1,0.5,0.2,0.7,0.2,0.7l0,0l1-0.4l7-2.8c0,0,0,0,0,0c0.1-0.2,0.3-0.3,0.5-0.3c0,0,0.1,0,0.1,0c0,0,0,0,0,0l10.2-4.1
				c0,0,0,0,0,0c-7.1-1.4-13.4-2.8-13.2-3.4c-0.1,0.2-0.3,0.4-0.6,0.3c-0.1,0-0.1,0-0.2-0.1c-0.2-0.1-0.4-0.3-0.3-0.6
				c-0.1,0.4-2.2,0-5.2-0.7c-0.6,2.3-0.7,4.5-0.5,6.5C369.4,257.8,371.4,258.2,373.4,258.6z"/>
			<path fill="#EF4C6A" d="M373.8,251.3C373.8,251.3,373.8,251.3,373.8,251.3C373.8,251.3,373.8,251.3,373.8,251.3
				C373.8,251.3,373.8,251.3,373.8,251.3z"/>
			<path fill="#EF4C6A" d="M373.9,251.3C373.9,251.3,373.9,251.3,373.9,251.3C373.9,251.3,373.9,251.3,373.9,251.3
				C373.9,251.3,373.9,251.3,373.9,251.3z"/>
			<path fill="#EF4C6A" d="M865.2,232.9c-0.3-0.4-1-0.5-1.4-0.2c-8.4,6.6-10.9,12.8-10.4,26.5c0.3,9.7-7.6,15.5-10.9,17.6l-2.7-4.4
				c3.4-2.4,11.2-9,11.9-19.3c0.9-12.9,2.9-18.8,8.9-25.2c0.4-0.4,0.4-1,0-1.4c-0.4-0.4-1-0.4-1.4,0c-6.3,6.7-8.6,13.1-9.5,26.4
				c-0.6,9.2-7.8,15.4-11,17.7l-2.7-4.4c3.1-2.6,10.2-9.4,12-19.2c2.1-11.8,3.9-18.7,8.2-25.5c0.3-0.5,0.2-1.1-0.3-1.4
				c-0.5-0.3-1.1-0.2-1.4,0.3c-4.6,7.1-6.4,14.1-8.5,26.3c-1.6,8.8-8.1,15.2-11,17.8l-2.7-4.4c2.8-2.7,9.2-9.8,12-19.1
				c1.5-5,2.6-9,3.5-12.6c1.4-5.1,2.5-9.2,4-13.3c0.2-0.5-0.1-1.1-0.6-1.3c-0.5-0.2-1.1,0.1-1.3,0.6c-1.6,4.2-2.7,8.3-4,13.5
				c-1,3.6-2.1,7.7-3.5,12.6c-2.5,8.3-8.3,15-11.2,17.9l-2.7-4.4c2.5-2.9,8.3-10.2,12.1-18.9c4.8-11.1,5.8-18.6,6.7-25.8l0.1-0.5
				c0.1-0.5-0.3-1-0.9-1.1c-0.6-0.1-1,0.3-1.1,0.9l-0.1,0.5c-0.9,7.1-1.9,14.5-6.6,25.3c-3.4,7.9-8.7,14.8-11.3,17.9l-2.6-4.4
				c2.2-3.1,7.4-10.7,12.1-18.8c6-10.3,6.8-18.2,6-26.7c0-0.6-0.5-1-1.1-0.9c-0.6,0-1,0.5-0.9,1.1c0.7,8.2,0,15.7-5.8,25.6
				c-4.4,7.5-9.1,14.5-11.5,17.9l-2.6-4.3c1.9-3.3,6.5-11,12.1-18.6c8.3-11.1,7.2-20.3,5.2-27.1c-0.2-0.5-0.7-0.8-1.2-0.7
				c-0.5,0.2-0.8,0.7-0.7,1.2c1.9,6.8,2.9,15-4.9,25.4c-5.3,7-9.6,14.1-11.7,17.8l-2.6-4.3c1.6-3.5,5.6-11.4,12.2-18.4
				c7.9-8.3,9.3-17,4.4-27.4c-0.2-0.5-0.8-0.7-1.3-0.5c-0.5,0.2-0.7,0.8-0.5,1.3c4.5,9.7,3.3,17.4-4.1,25.2
				c-6.2,6.5-10.1,13.7-12,17.7l-2.9-4.7c-12.9,23.2-30.1,32.4-44.3,35.7c-4.3-11.7-9.8-23.4-11.5-27.3c-2-4.7-5.6-3.8-8.2-2.3
				c-1.9,1-3.3,2.4-3.4,2.2c-0.9,0.6-1.9,1.2-2.8,1.7c-111.3,68.7-204.9,36.2-225.6,27.9c-2.3-0.9-3.7-1.6-4.2-1.7
				c-2.3-0.8-7.5,15-9.2,30.3c-0.1,1.3-0.3,2.7-0.4,4c0,0,0,0,0,0.1c0,0,0,0.1,0,0.1c0,0.6-0.1,1.2-0.1,1.7c0,0.1,0,0.2,0,0.3
				c0,0.5,0,1.1-0.1,1.6c0,0.1,0,0.2,0,0.2c0,0.6,0,1.1,0,1.7c0,0.1,0,0.2,0,0.4c0,0.6,0,1.1,0,1.7c0,0,0,0,0,0.1
				c0,0.5,0.1,1.1,0.1,1.6c0,0.1,0,0.2,0,0.3c0,0.5,0.1,1,0.2,1.5c0,0.1,0,0.2,0,0.2c0.1,0.4,0.1,0.9,0.2,1.3c0,0.1,0,0.2,0,0.3
				c0.1,0.5,0.2,0.9,0.3,1.4c0,0.1,0,0.2,0.1,0.3c0.1,0.4,0.2,0.8,0.3,1.2c0,0,0,0.1,0,0.1c0.1,0.4,0.3,0.8,0.4,1.2
				c0,0.1,0.1,0.2,0.1,0.3c0.2,0.4,0.3,0.8,0.5,1.1c0,0,0,0.1,0.1,0.1c0.2,0.3,0.3,0.6,0.5,0.9c0,0.1,0.1,0.1,0.1,0.2
				c0.2,0.3,0.4,0.6,0.6,0.9c0,0.1,0.1,0.1,0.1,0.2c0.2,0.2,0.4,0.5,0.6,0.7c0,0,0.1,0.1,0.1,0.1c0.3,0.2,0.5,0.4,0.8,0.6
				c0.1,0,0.1,0.1,0.2,0.1c0.3,0.2,0.6,0.4,0.9,0.5c0,0,0,0,0,0c2.2,0.6,4.3,1.1,6.4,1.6c0.6,0.2,1.3,0.3,1.9,0.5
				c1.5,0.4,3.1,0.7,4.6,1.1c0.7,0.2,1.3,0.3,2,0.4c1.8,0.4,3.6,0.8,5.4,1.2c0.3,0.1,0.6,0.1,0.8,0.2c2.1,0.4,4.1,0.8,6.2,1.2
				c0.6,0.1,1.2,0.2,1.7,0.3c0.7,0.1,1.5,0.3,2.2,0.4c0.8,0.1,1.6,0.3,2.3,0.4c0.6,0.1,1.3,0.2,1.9,0.3c1,0.2,1.9,0.3,2.9,0.5
				c0.6,0.1,1.3,0.2,1.9,0.3c0.4,0.1,0.8,0.1,1.3,0.2c2,0.3,4,0.6,5.9,0.9c0.5,0.1,1,0.1,1.5,0.2c1.5,0.2,3,0.4,4.5,0.6
				c0.6,0.1,1.2,0.2,1.9,0.2c1.5,0.2,2.9,0.4,4.4,0.5c0.5,0.1,1,0.1,1.5,0.2c0.9,0.1,1.7,0.2,2.6,0.3c1,0.1,2.1,0.2,3.1,0.3
				c0.4,0,0.8,0.1,1.2,0.1c1.5,0.1,3,0.3,4.5,0.4c0.6,0,1.2,0.1,1.8,0.1c1.4,0.1,2.7,0.2,4.1,0.3c0.5,0,1,0.1,1.6,0.1
				c1.8,0.1,3.6,0.2,5.4,0.3c0.2,0,0.5,0,0.7,0c1.6,0.1,3.1,0.1,4.7,0.2c0.6,0,1.1,0,1.7,0.1c1.3,0,2.6,0.1,3.8,0.1
				c0.5,0,1.1,0,1.6,0c1.7,0,3.4,0,5.1,0c0,0,0,0,0.1,0c1.7,0,3.4,0,5.1,0c0.5,0,1,0,1.5,0c1.2,0,2.5-0.1,3.7-0.1c0.5,0,1,0,1.6,0
				c1.4,0,2.9-0.1,4.3-0.2c0.2,0,0.5,0,0.7,0c1.6-0.1,3.2-0.2,4.9-0.3c0.5,0,0.9-0.1,1.4-0.1c1.2-0.1,2.4-0.2,3.5-0.2
				c0.5,0,1-0.1,1.5-0.1c1.3-0.1,2.5-0.2,3.7-0.3c0.3,0,0.7-0.1,1-0.1c1.5-0.1,3.1-0.3,4.6-0.5c0.4,0,0.8-0.1,1.1-0.1
				c1.2-0.1,2.3-0.3,3.4-0.4c0.5-0.1,1-0.1,1.4-0.2c1.1-0.1,2.2-0.3,3.4-0.4c0.4-0.1,0.7-0.1,1.1-0.2c1.5-0.2,2.9-0.4,4.3-0.6
				c0.3,0,0.6-0.1,0.9-0.1c1.2-0.2,2.3-0.4,3.4-0.6c0.4-0.1,0.9-0.2,1.3-0.2c1-0.2,2.1-0.4,3.1-0.5c0.4-0.1,0.8-0.1,1.2-0.2
				c1.4-0.3,2.7-0.5,4.1-0.8c0.2,0,0.3-0.1,0.5-0.1c1.2-0.2,2.3-0.5,3.5-0.7c0.4-0.1,0.8-0.2,1.2-0.3c1-0.2,1.9-0.4,2.8-0.6
				c0.4-0.1,0.8-0.2,1.2-0.3c1.2-0.3,2.5-0.6,3.7-0.9c0,0,0.1,0,0.1,0c1.3-0.3,2.5-0.6,3.7-0.9c0.4-0.1,0.7-0.2,1.1-0.3
				c0.9-0.2,1.8-0.5,2.6-0.7c0.4-0.1,0.7-0.2,1.1-0.3c1-0.3,2-0.6,3-0.9c0.2,0,0.3-0.1,0.5-0.1c1.2-0.3,2.3-0.7,3.4-1
				c0.3-0.1,0.6-0.2,0.9-0.3c0.8-0.3,1.7-0.5,2.5-0.8c0.3-0.1,0.7-0.2,1-0.3c0.9-0.3,1.7-0.6,2.6-0.9c0.2-0.1,0.5-0.1,0.7-0.2
				c1.1-0.4,2.1-0.7,3.2-1.1c0.3-0.1,0.5-0.2,0.8-0.3c0.8-0.3,1.6-0.6,2.4-0.8c0.3-0.1,0.7-0.2,1-0.4c0.8-0.3,1.5-0.6,2.2-0.8
				c0.3-0.1,0.5-0.2,0.8-0.3c1-0.4,1.9-0.7,2.9-1.1c0.2-0.1,0.4-0.1,0.5-0.2c0.8-0.3,1.5-0.6,2.3-0.9c0.3-0.1,0.6-0.2,0.9-0.4
				c0.7-0.3,1.3-0.5,2-0.8c0.3-0.1,0.5-0.2,0.8-0.3c0.9-0.4,1.7-0.7,2.6-1.1c0.1,0,0.2-0.1,0.3-0.1c0.8-0.3,1.5-0.7,2.2-1
				c0.3-0.1,0.5-0.2,0.8-0.3c0.6-0.3,1.2-0.5,1.8-0.8c0.2-0.1,0.5-0.2,0.7-0.3c0.8-0.4,1.5-0.7,2.2-1.1c0,0,0.1,0,0.1,0
				c0.6-0.3,1.3-0.6,1.9-0.9c0.1-0.1,0.2-0.1,0.3-0.2c0,0-0.1,0-0.1,0c1.6-0.8,3.2-1.6,4.7-2.4c1.2-0.7,2.4-1.3,3.6-1.9
				c1.4-0.8,2.7-1.5,3.9-2.2c0.1,0,0.1-0.1,0.2-0.1c0,0,0,0,0,0c0.2,11.3-0.6,21-1.5,28.5c66.9-0.7,86.8-46.5,86.8-46.5l-2.1-3.4
				c3.7-2.2,12.2-8.5,11.9-19.3c-0.5-14.4,2.6-19.3,9.6-24.9C865.5,233.9,865.6,233.3,865.2,232.9z"/>
		</g>
	</g>
	<g>
		<g>
			<polygon fill="#FFFFFF" points="901.2,385.4 811.8,400.4 900.8,383.5 990.2,368.5 			"/>
		</g>
	</g>
	<g>
		<g>
			<polygon fill="#FFFFFF" points="881.3,401.3 791.9,416.3 881,399.3 970.3,384.3 			"/>
		</g>
	</g>
	<g>
		<path fill="#36C790" d="M830.9,573.4L830.9,573.4C830.9,573.4,830.9,573.4,830.9,573.4c-0.1,0-0.1,0-0.2,0l0,0c-1-0.1-2-0.3-3-0.4
			c-0.1,0-0.3,0-0.4-0.1c-1-0.2-2-0.3-3-0.5c-0.2,0-0.4-0.1-0.5-0.1c-1-0.2-2-0.4-3.1-0.6c-0.2,0-0.3-0.1-0.5-0.1
			c-1.1-0.2-2.1-0.4-3.2-0.6c-0.1,0-0.2,0-0.3-0.1c-1.1-0.2-2.2-0.5-3.3-0.7c-0.1,0-0.2,0-0.3-0.1c-1.1-0.2-2.2-0.5-3.3-0.8
			c-0.2,0-0.4-0.1-0.5-0.1c-1.1-0.3-2.2-0.5-3.3-0.8c-0.2-0.1-0.4-0.1-0.6-0.2c-1.1-0.3-2.2-0.6-3.4-0.9c-0.2,0-0.3-0.1-0.5-0.1
			c-1.2-0.3-2.4-0.7-3.6-1.1c0,0,0,0,0,0c-1.2-0.4-2.4-0.7-3.6-1.1c-0.2-0.1-0.3-0.1-0.5-0.2c-1.2-0.4-2.3-0.8-3.5-1.2
			c-0.2-0.1-0.4-0.1-0.6-0.2c-0.5-0.2-1.1-0.4-1.6-0.6c-16.4,15.9,31.7,20.3,62.2,17.9c10.1-0.8,14.8-2.9,16-5.4
			C858.2,575.6,845.8,575.5,830.9,573.4z"/>
		<path fill="#36C790" d="M571.3,552.9c0,0-0.4,0.1-1.3,0.4c-2.3,0.6-4.6,1.2-6.9,1.7c-30.1,7.4-137.7,30.7-230.8,13.4
			c2.3,2.2,6,4.6,11.7,7.1c33.6,14.6,164.1,24.8,275.2-15.1c62.4-22.4,49.5-34.7,21.8-41C617.3,536,593.2,546.8,571.3,552.9
			C571.3,552.9,571.3,552.9,571.3,552.9z"/>
		<g>
			<path fill="#FEDF74" d="M595.2,68.9c-23.3-15.5-39.2-14.5-48.8-10.3c-8.1,3.5-11.8,9.3-11.8,9.3s33.7-3.8,55.9,16.3
				c7.9,0.8,15.8,2.2,23.6,4.3C609.9,81.4,603.8,74.7,595.2,68.9z"/>
			<path fill="#FEDF74" d="M685.5,70.5c14.8,23.7,7.5,44.3-4.6,58.8c-12.7,15.1-30.7,23.4-34.5,21.1c7.4,4.4,18.7,11,31.3,4.2
				c0,0,6.5-6.1,12-16.7C697.4,122.9,703.2,98.9,685.5,70.5z"/>
		</g>
		<g>
			<path fill="#FFEBA8" d="M613.3,58.9c-28-18.6-52.9-9.2-66.9-0.3c9.6-4.2,25.5-5.2,48.8,10.3c8.6,5.7,14.7,12.5,18.9,19.5
				c10.1,2.7,20.1,6.7,29.9,12.1C639.7,86.2,630.9,70.6,613.3,58.9z"/>
			<path fill="#FFEBA8" d="M685.5,70.5C647.2,9.2,599,37,599,37s66.4,16,49.2,66c-0.6,1.8-1.4,3.7-2.2,5.7c-2.4,5.3-5.7,11-10,17
				c-2.1,6.4-0.9,11.7,1.5,15.8c2.6,4.4,6.4,7.4,8.9,8.9c3.8,2.2,21.8-6,34.5-21.1C693,114.8,700.2,94.1,685.5,70.5z"/>
			<path fill="#FFEBA8" d="M461.8,178.9c0.7-0.6,1.2-1.4,1.5-2.3c1.9,2.2,5.2,2.5,7.4,0.6c0.7-0.6,1.2-1.3,1.5-2.1
				c1.9,1.6,4.8,1.7,6.8,0c1.3-1.1,1.9-2.6,1.8-4.1c1.5,0.3,3.1-0.1,4.4-1.1c1.8-1.5,2.3-4,1.4-6.1c-1.9-0.1-3.8,0.6-5.1,2.1
				c-0.6,0.7-1.2,1.3-1.8,1.9c-0.6,0.5-1.2,1-1.8,1.5c-1.7,1.3-3.5,2.3-5.3,3c-0.6,0.2-1.2,0.5-1.8,0.7c-2.4,0.8-4.8,1.2-7.1,1.5
				c-0.5,0-0.9,0.1-1.4,0.1c-3.3,0.2-6.4-0.1-8.9-0.4l0.6,3.6c0.1,0.2,0.3,0.4,0.4,0.6C456.3,180.5,459.6,180.8,461.8,178.9z"/>
			<path fill="#FFEBA8" d="M482,174.9c-1.3,1.1-1.9,2.6-1.8,4.1c-1.5-0.3-3.1,0.1-4.4,1.1c-0.7,0.6-1.2,1.3-1.5,2.1
				c-1.9-1.6-4.8-1.7-6.8,0c-0.7,0.6-1.2,1.4-1.5,2.3c-1.9-2.2-5.2-2.5-7.4-0.6c-0.9,0.8-1.5,1.8-1.7,2.8c2.7,0.1,5.7,0.1,8.8-0.2
				c0.4,0,0.9-0.1,1.3-0.2c2.3-0.3,4.6-0.8,7-1.5c0.6-0.2,1.2-0.4,1.7-0.6c1.8-0.6,3.6-1.4,5.4-2.4c0.7-0.4,1.4-0.8,2-1.2
				c2.2-1.4,4.3-3.1,6.3-5.1c0,0,0-0.1-0.1-0.1C487.6,173.3,484.3,173,482,174.9z"/>
		</g>
		<g>
			<path fill="#5C48A2" d="M379.3,319.8c4.2-10.7,8.3-21.4,12.5-32.1c0.9-2.3,3.3-4.6,4.8-6.6c-0.1-0.1-0.3-0.1-0.4-0.2l-0.1,0.3
				l-4.9,6.7l-12.1,31c-4.4-1.3-10.2-1.2-12.1-1.1c0.3,0.2,0.6,0.5,0.9,0.7C371.4,318.5,379.7,318.9,379.3,319.8z"/>
			<path fill="#5C48A2" d="M786.4,562.2c0.6,0.2,1.3,0.5,1.9,0.7c0.5,0.2,1.1,0.4,1.6,0.6c-0.5-0.2-1.1-0.4-1.6-0.6
				C787.6,562.7,787,562.5,786.4,562.2z"/>
			<path fill="#5C48A2" d="M830.8,573.4c-1-0.1-2-0.3-3-0.4C828.8,573.1,829.8,573.2,830.8,573.4
				C830.8,573.4,830.8,573.4,830.8,573.4c0.1,0,0.1,0,0.2,0c0,0,0,0,0,0C830.8,573.4,830.8,573.4,830.8,573.4z"/>
		</g>
		<g>
			<path fill="#4A3498" d="M444.3,394.7c-14.3-4.2-28.3-11.4-43-16.8c14.7,5.5,22.2,48.5-35.2,46.8c-30.6-0.9-60.2,34.7-54.9,64.4
				l7.5,0.4c0,0,0,0,0,0h0c4.2-17.2,16.1-45.8,38.5-47.8c25-2.2,37.8,35.6,63.2,58.8c7.6-1.9,15.3-4,23-6.3
				c-1.3-4.3-2.4-8.8-3.2-13.5c-6.3-34.9,6.9-69.9,32.9-93.6C464.3,393.6,454.4,397.7,444.3,394.7z"/>
			<path fill="#4A3498" d="M368.1,318.4c-0.3-0.2-0.6-0.4-0.9-0.7c0,0-0.1,0-0.1,0c0.3,0.2,0.6,0.4,0.8,0.7
				C367.9,318.4,368,318.4,368.1,318.4z"/>
			<path fill="#4A3498" d="M508.9,321.5c-0.3-0.2-0.5-0.4-0.8-0.6c0,0-0.1-0.1-0.1-0.1c-0.2-0.2-0.4-0.4-0.6-0.7
				c0-0.1-0.1-0.1-0.1-0.2c-0.2-0.3-0.4-0.6-0.6-0.9c0-0.1-0.1-0.1-0.1-0.2c-0.2-0.3-0.4-0.6-0.5-0.9c0,0,0-0.1-0.1-0.1
				c-0.2-0.4-0.3-0.7-0.5-1.1c0-0.1-0.1-0.2-0.1-0.3c-0.1-0.4-0.3-0.8-0.4-1.2c0,0,0-0.1,0-0.1c-0.1-0.4-0.2-0.8-0.3-1.2
				c0-0.1,0-0.2-0.1-0.3c-0.1-0.4-0.2-0.9-0.3-1.4c0-0.1,0-0.2,0-0.3c-0.1-0.4-0.1-0.9-0.2-1.3c0-0.1,0-0.2,0-0.2
				c-0.1-0.5-0.1-1-0.2-1.5c0-0.1,0-0.2,0-0.3c0-0.5-0.1-1-0.1-1.6c0,0,0,0,0-0.1c0-0.5,0-1.1,0-1.7c0-0.1,0-0.2,0-0.4
				c0-0.6,0-1.1,0-1.7c0-0.1,0-0.2,0-0.2c0-0.5,0-1,0.1-1.6c0-0.1,0-0.2,0-0.3c0-0.6,0.1-1.2,0.1-1.7c0,0,0-0.1,0-0.1c0,0,0,0,0-0.1
				c0.1-1.3,0.2-2.7,0.4-4c-10.6,4.5-25.3,7.3-47.4,4.1c47.6,6.9-8.5,76-87.5,20c-0.1,0-0.2,0-0.3,0c18.2,14.4,41.1,30.2,63.8,39.6
				c20,8.3,38,12.7,54.1,14.6c-2.5,3-5.3,5.9-8.2,8.7c0,0,0,0,0.1-0.1c3.2-2.6,6.2-5.4,8.9-8.6c3.5-4.1,6.6-8.7,9.3-13.6
				c6.3-11.5,10.5-24.7,13.2-37.9c-0.3-0.1-0.6-0.3-0.9-0.5C509,321.6,509,321.5,508.9,321.5z"/>
			<path fill="#4A3498" d="M755.6,315.6c0.5-0.8,1-1.6,1.4-2.4c1.8-3.4,2.9-7.1,3.3-11.2c0.1-0.7,0.1-1.4,0.1-2.1
				c-0.1,0-0.1,0.1-0.2,0.1c-1.2,0.7-2.5,1.5-3.9,2.2c-1.1,0.6-2.3,1.3-3.6,1.9c-1.5,0.8-3,1.6-4.7,2.4c0,0,0.1,0,0.1,0
				c1.3-0.6,1.2-0.6,0,0c-0.1,0.1-0.2,0.1-0.3,0.2c-0.6,0.3-1.3,0.6-1.9,0.9c0,0-0.1,0-0.1,0c-0.7,0.4-1.5,0.7-2.2,1.1
				c-0.2,0.1-0.5,0.2-0.7,0.3c-0.6,0.3-1.2,0.5-1.8,0.8c-0.3,0.1-0.5,0.2-0.8,0.3c-0.7,0.3-1.5,0.7-2.2,1c-0.1,0-0.2,0.1-0.3,0.1
				c-0.9,0.4-1.7,0.7-2.6,1.1c-0.3,0.1-0.5,0.2-0.8,0.3c-0.7,0.3-1.3,0.5-2,0.8c-0.3,0.1-0.6,0.2-0.9,0.4c-0.7,0.3-1.5,0.6-2.3,0.9
				c-0.2,0.1-0.4,0.1-0.5,0.2c-0.9,0.4-1.9,0.7-2.9,1.1c-0.3,0.1-0.5,0.2-0.8,0.3c-0.7,0.3-1.5,0.6-2.2,0.8c-0.3,0.1-0.7,0.2-1,0.4
				c-0.8,0.3-1.6,0.6-2.4,0.8c-0.3,0.1-0.5,0.2-0.8,0.3c-1,0.4-2.1,0.7-3.2,1.1c-0.2,0.1-0.5,0.2-0.7,0.2c-0.9,0.3-1.7,0.6-2.6,0.9
				c-0.3,0.1-0.7,0.2-1,0.3c-0.8,0.3-1.7,0.5-2.5,0.8c-0.3,0.1-0.6,0.2-0.9,0.3c-1.1,0.3-2.3,0.7-3.4,1c-0.2,0.1-0.3,0.1-0.5,0.1
				c-1,0.3-2,0.6-3,0.9c-0.4,0.1-0.7,0.2-1.1,0.3c-0.9,0.2-1.8,0.5-2.6,0.7c-0.4,0.1-0.7,0.2-1.1,0.3c-1.2,0.3-2.5,0.6-3.7,0.9
				c0,0-0.1,0-0.1,0c-1.2,0.3-2.5,0.6-3.7,0.9c-0.4,0.1-0.8,0.2-1.2,0.3c-0.9,0.2-1.9,0.4-2.8,0.6c-0.4,0.1-0.8,0.2-1.2,0.3
				c-1.2,0.2-2.3,0.5-3.5,0.7c-0.2,0-0.3,0.1-0.5,0.1c-1.3,0.3-2.7,0.5-4.1,0.8c-0.4,0.1-0.8,0.1-1.2,0.2c-1,0.2-2,0.4-3.1,0.5
				c-0.4,0.1-0.9,0.2-1.3,0.2c-1.1,0.2-2.3,0.4-3.4,0.6c-0.3,0-0.6,0.1-0.9,0.1c-1.4,0.2-2.9,0.4-4.3,0.6c-0.4,0.1-0.7,0.1-1.1,0.2
				c-1.1,0.2-2.2,0.3-3.4,0.4c-0.5,0.1-1,0.1-1.4,0.2c-1.1,0.1-2.3,0.3-3.4,0.4c-0.4,0-0.8,0.1-1.1,0.1c-1.5,0.2-3,0.3-4.6,0.5
				c-0.3,0-0.7,0.1-1,0.1c-1.2,0.1-2.5,0.2-3.7,0.3c-0.5,0-1,0.1-1.5,0.1c-1.2,0.1-2.3,0.2-3.5,0.2c-0.5,0-0.9,0.1-1.4,0.1
				c-1.6,0.1-3.2,0.2-4.9,0.3c-0.2,0-0.5,0-0.7,0c-1.4,0.1-2.8,0.1-4.3,0.2c-0.5,0-1,0-1.6,0c-1.2,0-2.4,0.1-3.7,0.1
				c-0.5,0-1,0-1.5,0c-1.7,0-3.4,0-5.1,0c0,0,0,0-0.1,0c-1.7,0-3.4,0-5.1,0c-0.5,0-1.1,0-1.6,0c-1.3,0-2.6-0.1-3.8-0.1
				c-0.6,0-1.1,0-1.7-0.1c-1.6-0.1-3.1-0.1-4.7-0.2c-0.2,0-0.5,0-0.7,0c-1.8-0.1-3.6-0.2-5.4-0.3c-0.5,0-1-0.1-1.6-0.1
				c-1.4-0.1-2.7-0.2-4.1-0.3c-0.6,0-1.2-0.1-1.8-0.1c-1.5-0.1-3-0.3-4.5-0.4c-0.4,0-0.8-0.1-1.2-0.1c-1-0.1-2.1-0.2-3.1-0.3
				c-0.9-0.1-1.7-0.2-2.6-0.3c-0.5-0.1-1-0.1-1.5-0.2c-1.5-0.2-2.9-0.3-4.4-0.5c-0.6-0.1-1.2-0.2-1.9-0.2c-1.5-0.2-3-0.4-4.5-0.6
				c-0.5-0.1-1-0.1-1.5-0.2c-2-0.3-3.9-0.6-5.9-0.9c-0.4-0.1-0.8-0.1-1.3-0.2c-0.6-0.1-1.3-0.2-1.9-0.3c-1-0.2-1.9-0.3-2.9-0.5
				c-0.6-0.1-1.3-0.2-1.9-0.3c-0.8-0.1-1.6-0.3-2.3-0.4c0,0,0,0,0,0c2.4,0.6,4.8,1.1,7.3,1.7c9.2,2,19.3,3.9,29.9,5.5
				C646.2,346.8,734.2,348,755.6,315.6z"/>
			<path fill="#4A3498" d="M467.5,148.3c0.8,1.1,0.5,2.7-0.6,3.5c-0.5,0.4-3.2,2.2-6.7,3.6c0.2,0.4,0.5,0.8,0.8,1.2
				c3,3.5,8.3,4,11.8,1c0.3-0.2,0.5-0.5,0.8-0.8c2.8-3.1,2.9-7.8,0.2-11c-3-3.5-8.3-4-11.8-1c-0.1,0-0.1,0.1-0.2,0.2
				c-1.6,1.5-2.6,3.4-2.8,5.5c2.1-1,4-2.1,5-2.8C465.1,146.9,466.7,147.2,467.5,148.3z"/>
			<path fill="#4A3498" d="M839.9,549.2c-64.1,10.9-139.9-49.3-135.2-43.7c0,0,0,0,0,0c0.1,0.1,0.1,0.1,0.2,0.2
				c1.1,1.3,2.3,2.6,3.4,3.8c0.1,0.1,0.2,0.2,0.3,0.4c1.1,1.3,2.3,2.5,3.5,3.7c0.2,0.2,0.4,0.4,0.6,0.6c1.1,1.2,2.3,2.3,3.4,3.4
				c0.2,0.2,0.4,0.4,0.6,0.6c1.2,1.1,2.3,2.2,3.5,3.3c0.2,0.1,0.3,0.3,0.5,0.4c1.2,1.1,2.4,2.2,3.7,3.3c0,0,0,0,0,0
				c1.2,1.1,2.5,2.1,3.7,3.2c0.2,0.1,0.3,0.3,0.5,0.4c1.2,1,2.4,1.9,3.6,2.9c0.2,0.2,0.4,0.3,0.6,0.5c1.2,0.9,2.4,1.8,3.6,2.7
				c0.2,0.1,0.4,0.3,0.6,0.4c1.2,0.9,2.5,1.8,3.7,2.7c0.1,0.1,0.2,0.1,0.3,0.2c1.2,0.9,2.5,1.7,3.7,2.5c0.1,0.1,0.2,0.2,0.3,0.2
				c1.2,0.8,2.5,1.6,3.7,2.4c0.2,0.1,0.4,0.3,0.6,0.4c1.2,0.8,2.4,1.5,3.6,2.2c0.2,0.1,0.4,0.3,0.6,0.4c1.2,0.7,2.4,1.4,3.6,2.1
				c0.2,0.1,0.3,0.2,0.5,0.3c1.3,0.7,2.5,1.4,3.8,2.1c0,0,0,0,0,0c1.3,0.7,2.5,1.3,3.8,2c0.2,0.1,0.3,0.2,0.5,0.3
				c1.2,0.6,2.4,1.2,3.6,1.8c0.2,0.1,0.4,0.2,0.6,0.3c1.2,0.6,2.4,1.1,3.6,1.7c0.2,0.1,0.4,0.2,0.6,0.3c1.2,0.5,2.4,1.1,3.7,1.6
				c0.1,0,0.2,0.1,0.3,0.1c1.2,0.5,2.4,1,3.6,1.5c0.1,0,0.2,0.1,0.3,0.1c1.2,0.5,2.4,0.9,3.6,1.4c0.2,0.1,0.4,0.1,0.6,0.2
				c0.6,0.2,1.3,0.5,1.9,0.7c0.5,0.2,1.1,0.4,1.6,0.6c0.2,0.1,0.4,0.1,0.6,0.2c1.2,0.4,2.3,0.8,3.5,1.2c0.2,0.1,0.3,0.1,0.5,0.2
				c1.2,0.4,2.4,0.8,3.6,1.1c0,0,0,0,0,0c1.2,0.4,2.4,0.7,3.6,1.1c0.2,0,0.3,0.1,0.5,0.1c1.1,0.3,2.2,0.6,3.4,0.9
				c0.2,0.1,0.4,0.1,0.6,0.2c1.1,0.3,2.2,0.6,3.3,0.8c0.2,0,0.4,0.1,0.5,0.1c1.1,0.3,2.2,0.5,3.3,0.8c0.1,0,0.2,0,0.3,0.1
				c1.1,0.2,2.2,0.5,3.3,0.7c0.1,0,0.2,0,0.3,0.1c1.1,0.2,2.2,0.4,3.2,0.6c0.2,0,0.3,0.1,0.5,0.1c1,0.2,2.1,0.4,3.1,0.6
				c0.2,0,0.4,0.1,0.5,0.1c1,0.2,2,0.3,3,0.5c0.1,0,0.3,0,0.4,0.1c1,0.2,2,0.3,3,0.4c0,0,0.1,0,0.1,0c0,0,0,0,0,0l0,0l5.3-14.2
				l3.8-10.1C840,549.1,839.9,549.1,839.9,549.2z"/>
		</g>
		<g>
			<path fill="#FED95B" d="M467.5,148.3c-0.8-1.1-2.3-1.4-3.5-0.6c-1,0.7-2.8,1.8-5,2.8c-3,1.3-6.5,2.4-9.1,1.7
				c-0.2,0-0.3-0.1-0.5-0.2c-1.3-0.5-2.2-1.4-2.9-2.8c-1.1-2.2-1.2-4.2-0.6-5.9c0.4-0.9,0.9-1.6,1.5-2.3c0.1-0.1,0.1-0.1,0.2-0.2
				l-0.9-5.6c-0.1,0-0.1,0.1-0.2,0.1c-1.8,1.2-4,3.1-5.2,6c-1.2,3-1,6.4,0.7,9.9c1.1,2.2,2.6,3.9,4.6,4.9c0.6,0.3,1.3,0.6,2,0.8
				c0.6,0.2,1.2,0.3,1.7,0.3c0.4,0,0.8,0.1,1.2,0.1c0.1,0,0.1,0,0.2,0c2.9,0,5.9-0.9,8.4-1.9c3.5-1.5,6.2-3.3,6.7-3.6
				C468,151,468.3,149.4,467.5,148.3z"/>
			<path fill="#FED95B" d="M376.2,234.9c-4.9,2-8.1,5.1-10.2,8.5c-0.2,0.3-0.3,0.5-0.5,0.8c-0.8,1.5-1.4,3.2-1.9,4.8
				c0.9,0.2,1.7,0.4,2.6,0.6c0.5-1.6,1.2-3.2,2.3-4.7c0.2-0.3,0.4-0.5,0.6-0.8c1.8-2.3,4.4-4.3,8-5.8c18.2-6,28.7,9.8,28.7,9.8
				l-1.9,0.8c0,0,0,0,0,0l-7,2.8l-1,0.4l-7.3,2.9c0,0,0,0,0.1,0l7.2-2.9l1-0.4l12.1-4.8C409.1,246.8,396.4,228.2,376.2,234.9z"/>
			<path fill="#FED95B" d="M366.1,250.3c-0.8-0.2-1.6-0.4-2.5-0.7c-0.5,2.2-0.8,4.4-0.8,6.4c0.9,0.2,1.7,0.5,2.6,0.7
				C365.3,254.8,365.5,252.6,366.1,250.3z"/>
			<path fill="#FED95B" d="M387.6,255.3l-10.2,4.1c0,0,0.1,0,0.1,0L387.6,255.3C387.6,255.3,387.6,255.3,387.6,255.3z"/>
			<path fill="#FED95B" d="M376.7,259.7C376.7,259.6,376.7,259.6,376.7,259.7l-7,2.7l-1,0.4l-2.2,0.9c0,0-0.3-0.8-0.5-2.2
				c-0.2-1-0.4-2.3-0.5-3.8c-0.9-0.2-1.8-0.4-2.6-0.7c0,1.4,0.1,2.7,0.2,3.8c-1.8-0.4-3.7-0.8-5.5-1.2c-0.8-0.2-1.6-0.3-2.4-0.5
				c-4.8-0.9-9.4-1.5-13.5-1.8c0,0,2.9,3.5,13.7,7.5c3.7,1.4,8.4,2.9,14.3,4.3c2,0.5,3.8,0.9,5.6,1.2c18.4,3.6,24.8,0.7,24.8,0.7
				s-14.3-4.7-30.3-8.6L376.7,259.7z"/>
		</g>
		<g>
			<path fill="#FFFBFC" d="M406.6,256.6c-1.2-1.8-3.9-2.7-5.7-3.5c-1.3-0.5-2.6-1-3.9-1.5l-1,0.4c5.3,1.8,9.7,3.7,10,5.3
				c-5.7-0.2-11.5-1.1-17.2-2.4c0,0,0,0-0.1,0c0,0,0,0,0,0c-5-1.1-9.9-2.4-14.6-3.5c0,0-0.1,0-0.1,0c0,0,0,0,0,0c0,0,0,0-0.1,0
				c0,0,0,0,0,0c0,0,0,0,0,0c0,0,0,0-0.1,0c-1.8-0.4-3.7-0.9-5.5-1.3c0.5-1.6,1.3-3.2,2.5-4.6c0.2-0.3,0.4-0.5,0.7-0.8
				c1.6-1.8,3.9-3.4,6.9-4.7c16.8-5.5,25.1,8,25.6,8.9l1.9-0.8c0,0-10.5-15.8-28.7-9.8c-3.7,1.5-6.2,3.5-8,5.8
				c-0.2,0.3-0.4,0.5-0.6,0.8c-1,1.5-1.8,3.1-2.3,4.7c-0.9-0.2-1.7-0.4-2.6-0.6c-7.2-1.7-14.5-3.7-21-6.9c0,0,0.1-0.1,0.1-0.1
				c1.9-1.2,5.6-0.5,7.7-0.3c5.1,0.5,10.1,1.4,15.1,2.5c0.1-0.3,0.3-0.5,0.5-0.8c-5.1-1.1-10.3-2.1-15.6-2.6c-2.5-0.3-5.7-0.7-8,0.4
				c-0.4,0.2-0.8,0.6-0.8,1.1c0,0.1,0,0.1,0,0.2c0,0,0,0,0,0c0.2,0.9-0.3,3-0.4,4.1c-0.3,3.3-0.7,6.7-1,10c-0.3,3.1-1.3,6.8-1,10
				c0.4-0.1,0.8-0.2,1.2-0.3c0-1.9,0.2-3.8,0.4-6c0.5-5.3,1.1-10.5,1.6-15.8c0-0.5,0-1.1,0.1-1.6c3.1,1.3,13.3,4.6,21.1,6.8
				c0.9,0.2,1.7,0.5,2.5,0.7c-0.6,2.2-0.7,4.5-0.7,6.4c-0.9-0.2-1.7-0.4-2.6-0.7c-3.1-0.9-6.2-1.9-9.3-3c-0.5-0.2-0.8,0.7-0.2,0.9
				c3.1,1.2,6.3,2.2,9.5,3.1c0.9,0.2,1.8,0.5,2.6,0.7c0.1,1.5,0.3,2.8,0.5,3.8c0.3,1.3,0.5,2.2,0.5,2.2l2.2-0.9c0,0-0.1-0.3-0.2-0.7
				c-0.2-0.8-0.6-2.1-0.8-3.8c1.8,0.4,3.7,0.8,5.6,1.2c0.6,0.1,0.8-0.8,0.2-0.9c-2-0.4-4-0.8-5.9-1.3c-0.2-1.9-0.1-4.2,0.5-6.5
				c3,0.8,5.1,1.1,5.2,0.7c-0.1,0.2,0.1,0.5,0.3,0.6c0.1,0,0.1,0,0.2,0.1c0.2,0.1,0.5-0.1,0.6-0.3c-0.1,0.6,6.1,2,13.2,3.4
				c0,0,0,0,0,0c0,0,0,0,0.1,0c7.2,1.4,15.2,2.7,18.1,2.9c-2.3,5.9-4.7,11.9-7,17.8c-0.6,1.6-1.1,3.6-2.1,5c0,0,0,0,0,0
				c-1.5,2-3.9,4.3-4.8,6.6c-4.2,10.7-8.3,21.4-12.5,32.1c0.3-0.9-7.9-1.3-11.3-1.4c-0.1,0-0.1,0-0.2,0c-0.5,0-0.9,0-1.1,0
				c-1.8,0.1-4.4-1.2-6.2-1.6c-1.2-0.2-2.4-0.5-3.6-0.8c-3.5-1-6.7-1.5-9.9-3.1c-2.1-1.1-4.3-2-6.6-2.7c-1.9-0.7-2.6,0.3-2.4-1.6
				c0.1-0.6,0.1-1.1,0.2-1.7c-0.3-0.1-0.6-0.2-0.9-0.3c-0.1,1.1-0.2,2.1-0.3,3.2c0,0.2,0.2,0.4,0.3,0.4c4.3,1,8.3,2.8,12.1,4.9
				c2.1,1.2,6.1,1.3,8.6,2.1c1,0.3,2.2,0.4,3.3,0.6c1.5,0.3,3.8,1.5,5.3,1.4c0.8,0,1.5-0.1,2.3-0.1c0.1,0,0.2,0,0.3,0
				c3.5,0,7,0.3,10.4,1.2c0.3,0.1,0.5-0.1,0.6-0.3c3.7-9.5,7.4-19,11.1-28.5c1.4-3.7,3.4-6.3,5.8-9.6c0.1-0.2,0.2-0.4,0.4-0.6
				c1.9-3,2.9-6.9,4.2-10.2c1.7-4.4,3.5-8.9,5.2-13.3C406.8,257.9,407,257.1,406.6,256.6z"/>
			<polygon fill="#FFFBFC" points="368.7,262.8 368.6,262.8 368.6,262.8 			"/>
			<path fill="#FFFBFC" d="M373.9,251.3C373.9,251.3,373.9,251.3,373.9,251.3C373.8,251.3,373.8,251.3,373.9,251.3
				C373.9,251.3,373.9,251.3,373.9,251.3z"/>
			<path fill="#FFFBFC" d="M377.2,260.3c0.6,0.1,0.8-0.7,0.2-0.9c0,0-0.1,0-0.1,0c0,0-0.1,0-0.1,0c0,0,0,0,0,0c0,0-0.1,0-0.1,0
				c-0.2-0.1-0.4,0.1-0.5,0.3c0,0,0,0,0,0c0,0,0,0,0,0.1c-0.1,0.2,0,0.5,0.3,0.5C377.1,260.2,377.2,260.2,377.2,260.3z"/>
			<path fill="#FFFBFC" d="M379.1,307.6c2.4-5,4.3-10.1,5.6-15.4c0,0,0-0.1,0-0.1c0.1-0.4,0.2-0.7,0.3-1.1c0.1-0.6-0.7-0.8-0.9-0.2
				c-0.2,1.1-0.5,2.1-0.8,3.2c0,0,0,0.1,0,0.1c-1.3,4.5-2.9,8.9-5,13.1C378.1,307.7,378.9,308.2,379.1,307.6z"/>
			<path fill="#FFFBFC" d="M377.3,312.6c0.1-0.3,0.2-0.6,0.4-0.8c0.4-0.4-0.2-1-0.6-0.6c-0.3,0.3-0.6,0.7-0.6,1.2
				C376.3,312.9,377.2,313.1,377.3,312.6z"/>
		</g>
		<g>
			<path fill="#F48297" d="M299.6,507.9l8.4,6.2c2.2,0,4.5-0.1,6.9-0.1c0.4-5.5,1.3-14.9,3.7-24.5c0,0,0,0,0,0l-7.5-0.4
				C313.5,504,306.5,506.3,299.6,507.9z"/>
			<path fill="#F48297" d="M490.3,165.3c-1.1-0.9-2.4-1.4-3.7-1.5c0.9,2.1,0.4,4.6-1.4,6.1c-1.3,1.1-2.9,1.4-4.4,1.1
				c0,1.5-0.6,3.1-1.8,4.1c-2,1.7-4.9,1.6-6.8,0c-0.3,0.8-0.8,1.5-1.5,2.1c-2.2,1.9-5.5,1.6-7.4-0.6c-0.3,0.8-0.8,1.6-1.5,2.3
				c-2.2,1.9-5.5,1.6-7.4-0.6c-0.2-0.2-0.3-0.4-0.4-0.6l1.6,9c0.5,0,1,0.1,1.5,0.1c0.2-1.1,0.8-2.1,1.7-2.8c2.2-1.9,5.5-1.6,7.4,0.6
				c0.3-0.8,0.8-1.6,1.5-2.3c2-1.7,4.9-1.6,6.8,0c0.3-0.8,0.8-1.5,1.5-2.1c1.3-1.1,2.9-1.4,4.4-1.1c0-1.5,0.6-3.1,1.8-4.1
				c2.2-1.9,5.5-1.6,7.4,0.6c0,0,0,0.1,0.1,0.1c0.5-0.5,0.9-0.9,1.3-1.4C493.1,171.5,492.9,167.6,490.3,165.3z"/>
			<path fill="#F48297" d="M859.3,556.4c0.5-10.1-18-7.2-19.2-7.2l-3.8,10.1l-5.3,14.2c14.9,2.1,27.2,2.2,35.5,1.9
				c6.9-0.2,10.9-0.8,10.9-0.8S858.5,572.6,859.3,556.4z"/>
			<path fill="#F48297" d="M830.8,573.4C830.8,573.4,830.8,573.4,830.8,573.4C830.8,573.4,830.8,573.4,830.8,573.4L830.8,573.4z"/>
			<path fill="#F48297" d="M356.5,288l17.4-11c0,0-7.3-2.6-18.3-7.8c-1-0.5-2.1-1-3.1-1.5c-3.8-1.9-7.9-2.3-11.7-1.5
				c-0.1,0-0.3,0.1-0.4,0.1c-0.4,0.1-0.8,0.2-1.2,0.3c-5.6,1.6-10.4,5.9-12.3,12l-1.6,4.9c-3.2,9.8,2.4,20.2,12.1,23.1
				c0.3,0.1,0.6,0.2,0.9,0.3c0,0,0.1,0,0.1,0c0.1,0,0.2,0.1,0.3,0.1c9.2,2.2,16.5,3.7,20.7,4.5c2.5,0.5,3.9,0.7,3.9,0.7l-15-19.1
				l7.8-4.9L356.5,288z"/>
		</g>
		<g>
			<path fill="#D6405A" d="M792.3,294.2c-7.4-3.9-13.3-5.6-18-6c-0.3,1.7-0.9,3.1-1.9,3.9c-2.4,1.8-6.4,4.6-11.9,7.8
				c0.2,11.3-0.6,21-1.5,28.5c66.9-0.7,86.8-46.5,86.8-46.5S816.9,307.1,792.3,294.2z"/>
			<path fill="#D6405A" d="M748.1,306.5C749.4,305.9,749.4,305.9,748.1,306.5L748.1,306.5z"/>
			<path fill="#D6405A" d="M606.2,317.4c-0.5-0.2-0.9-0.3-1.4-0.5c-31.4-10.7-53.2-16.8-68.4-20c-2.9-0.6-5.5-1.1-7.9-1.5
				c-6.3-1-11.1-1.4-14.7-1.3c-7.5,0.2-9.8,2.4-10.1,4.9c0,0,0,0,0,0.1c0,0,0,0.1,0,0.1c0,0.6-0.1,1.2-0.1,1.7c0,0.1,0,0.2,0,0.3
				c0,0.5,0,1.1-0.1,1.6c0,0.1,0,0.2,0,0.2c0,0.6,0,1.1,0,1.7c0,0.1,0,0.2,0,0.4c0,0.6,0,1.1,0,1.7c0,0,0,0,0,0.1
				c0,0.5,0.1,1.1,0.1,1.6c0,0.1,0,0.2,0,0.3c0,0.5,0.1,1,0.2,1.5c0,0.1,0,0.2,0,0.2c0.1,0.4,0.1,0.9,0.2,1.3c0,0.1,0,0.2,0,0.3
				c0.1,0.5,0.2,0.9,0.3,1.4c0,0.1,0,0.2,0.1,0.3c0.1,0.4,0.2,0.8,0.3,1.2c0,0,0,0.1,0,0.1c0.1,0.4,0.3,0.8,0.4,1.2
				c0,0.1,0.1,0.2,0.1,0.3c0.2,0.4,0.3,0.8,0.5,1.1c0,0,0,0.1,0.1,0.1c0.2,0.3,0.3,0.6,0.5,0.9c0,0.1,0.1,0.1,0.1,0.2
				c0.2,0.3,0.4,0.6,0.6,0.9c0,0.1,0.1,0.1,0.1,0.2c0.2,0.2,0.4,0.5,0.6,0.7c0,0,0.1,0.1,0.1,0.1c0.3,0.2,0.5,0.4,0.8,0.6
				c0.1,0,0.1,0.1,0.2,0.1c0.3,0.2,0.6,0.4,0.9,0.5c0,0,0,0,0,0c2.2,0.6,4.3,1.1,6.4,1.6c0.6,0.2,1.3,0.3,1.9,0.5
				c1.5,0.4,3.1,0.7,4.6,1.1c0.7,0.2,1.3,0.3,2,0.4c1.8,0.4,3.6,0.8,5.4,1.2c0.3,0.1,0.6,0.1,0.8,0.2c2.1,0.4,4.1,0.8,6.2,1.2
				c0.6,0.1,1.2,0.2,1.7,0.3c0.7,0.1,1.5,0.3,2.2,0.4c0.8,0.1,1.6,0.3,2.3,0.4c0.6,0.1,1.3,0.2,1.9,0.3c1,0.2,1.9,0.3,2.9,0.5
				c0.6,0.1,1.3,0.2,1.9,0.3c0.4,0.1,0.8,0.1,1.3,0.2c2,0.3,4,0.6,5.9,0.9c0.5,0.1,1,0.1,1.5,0.2c1.5,0.2,3,0.4,4.5,0.6
				c0.6,0.1,1.2,0.2,1.9,0.2c1.5,0.2,2.9,0.4,4.4,0.5c0.5,0.1,1,0.1,1.5,0.2c0.9,0.1,1.7,0.2,2.6,0.3c1,0.1,2.1,0.2,3.1,0.3
				c0.4,0,0.8,0.1,1.2,0.1c1.5,0.1,3,0.3,4.5,0.4c0.6,0,1.2,0.1,1.8,0.1c1.4,0.1,2.7,0.2,4.1,0.3c0.5,0,1,0.1,1.6,0.1
				c1.8,0.1,3.6,0.2,5.4,0.3c0.2,0,0.5,0,0.7,0c1.6,0.1,3.1,0.1,4.7,0.2c0.6,0,1.1,0,1.7,0.1c1.3,0,2.6,0.1,3.8,0.1
				c0.5,0,1.1,0,1.6,0c1.7,0,3.4,0,5.1,0c0,0,0,0,0.1,0c1.7,0,3.4,0,5.1,0c0.5,0,1,0,1.5,0c1.2,0,2.5-0.1,3.7-0.1c0.5,0,1,0,1.6,0
				c1.4,0,2.9-0.1,4.3-0.2c0.2,0,0.5,0,0.7,0c1.6-0.1,3.2-0.2,4.9-0.3c0.5,0,0.9-0.1,1.4-0.1c1.2-0.1,2.4-0.2,3.5-0.2
				c0.5,0,1-0.1,1.5-0.1c1.3-0.1,2.5-0.2,3.7-0.3c0.3,0,0.7-0.1,1-0.1c1.5-0.1,3.1-0.3,4.6-0.5c0.4,0,0.8-0.1,1.1-0.1
				c1.2-0.1,2.3-0.3,3.4-0.4c0.5-0.1,1-0.1,1.4-0.2c1.1-0.1,2.2-0.3,3.4-0.4c0.4-0.1,0.7-0.1,1.1-0.2c1.5-0.2,2.9-0.4,4.3-0.6
				c0.3,0,0.6-0.1,0.9-0.1c1.2-0.2,2.3-0.4,3.4-0.6c0.4-0.1,0.9-0.2,1.3-0.2c1-0.2,2.1-0.4,3.1-0.5c0.4-0.1,0.8-0.1,1.2-0.2
				c1.4-0.3,2.7-0.5,4.1-0.8c0.2,0,0.3-0.1,0.5-0.1c1.2-0.2,2.3-0.5,3.5-0.7c0.4-0.1,0.8-0.2,1.2-0.3c1-0.2,1.9-0.4,2.8-0.6
				c0.4-0.1,0.8-0.2,1.2-0.3c1.2-0.3,2.5-0.6,3.7-0.9c0,0,0.1,0,0.1,0c1.3-0.3,2.5-0.6,3.7-0.9c0.4-0.1,0.7-0.2,1.1-0.3
				c0.9-0.2,1.8-0.5,2.6-0.7c0.4-0.1,0.7-0.2,1.1-0.3c1-0.3,2-0.6,3-0.9c0.2,0,0.3-0.1,0.5-0.1c1.2-0.3,2.3-0.7,3.4-1
				c0.3-0.1,0.6-0.2,0.9-0.3c0.8-0.3,1.7-0.5,2.5-0.8c0.3-0.1,0.7-0.2,1-0.3c0.9-0.3,1.7-0.6,2.6-0.9c0.2-0.1,0.5-0.1,0.7-0.2
				c1.1-0.4,2.1-0.7,3.2-1.1c0.3-0.1,0.5-0.2,0.8-0.3c0.8-0.3,1.6-0.6,2.4-0.8c0.3-0.1,0.7-0.2,1-0.4c0.8-0.3,1.5-0.6,2.2-0.8
				c0.3-0.1,0.5-0.2,0.8-0.3c1-0.4,1.9-0.7,2.9-1.1c0.2-0.1,0.4-0.1,0.5-0.2c0.8-0.3,1.5-0.6,2.3-0.9c0.3-0.1,0.6-0.2,0.9-0.4
				c0.7-0.3,1.3-0.5,2-0.8c0.3-0.1,0.5-0.2,0.8-0.3c0.9-0.4,1.7-0.7,2.6-1.1c0.1,0,0.2-0.1,0.3-0.1c0.8-0.3,1.5-0.7,2.2-1
				c0.3-0.1,0.5-0.2,0.8-0.3c0.6-0.3,1.2-0.5,1.8-0.8c0.2-0.1,0.5-0.2,0.7-0.3c0.8-0.4,1.5-0.7,2.2-1.1c0,0,0.1,0,0.1,0
				c0.6-0.3,1.3-0.6,1.9-0.9c0.1-0.1,0.2-0.1,0.3-0.2c0,0-0.1,0-0.1,0C739.1,310.6,671.6,339,606.2,317.4z"/>
		</g>
	</g>
	<g>
		<polygon fill="#4A3498" points="298.9,19.2 302.8,75.9 302.8,75.9 		"/>
		<path fill="#4A3498" d="M360.2,63C360.2,63,360.2,63,360.2,63l-61.3-43.8l3.9,56.6C322.3,76.2,341.5,72.7,360.2,63z"/>
		<path fill="#4A3498" d="M69.2,146.3c-0.1,0.1-0.1,0.1-0.1,0.1l61.3,43.8l-3.7-54.6C107.2,134.8,88,137.5,69.2,146.3z"/>
		<g>
			<polygon fill="#EF4C6A" points="164.7,97.4 167.2,97.9 166.6,94.3 			"/>
			<path fill="#EF4C6A" d="M306.8,124.9c0.1-1.7-1.2-3.2-2.9-3.3l-0.2,5.5l2,0.1C306.3,126.7,306.7,125.9,306.8,124.9z"/>
			<path fill="#EF4C6A" d="M223.8,117.3c0,0.1,0,0.3-0.1,0.4c0.1-0.1,0.1-0.3,0.2-0.4c0,0,0-0.2,0.1-0.2c0,0-0.1,0-0.1,0
				C223.8,117.2,223.8,117.3,223.8,117.3z"/>
			<path fill="#EF4C6A" d="M257.1,112.8l-1.6-0.5l-1.8,6.4l4.8,1.4c0,0,0,0,0.1,0c0.7-0.5,1.2-1.2,1.4-2.1
				C260.6,115.7,259.3,113.4,257.1,112.8z"/>
			<path fill="#EF4C6A" d="M363.6,110.8L360.3,63c0,0-0.1,0-0.1,0c-18.8,9.7-38,13.1-57.4,12.8C223.2,74.5,139.2,9.5,62.1,45.6
				l3.6,53l3.3,47.8c0.1,0,0.2-0.1,0.3-0.1c18.8-8.7,38-11.5,57.4-10.6c79.8,3.5,163.7,67.9,240.5,28.2L363.6,110.8z M339.8,80.4
				c3.8-0.7,7.5-1.5,11.2-2.5c0.6-0.2,1.1-0.1,1.5,0.2c1.4,0.8,1.7,3.4-0.4,3.9c-1.3,0.4-2.6,0.7-4,1c-2.4,0.6-4.8,1.1-7.2,1.5
				C338.3,84.9,337.2,80.8,339.8,80.4z M161.4,51.8c4,1,8,2.1,12,3.2c2.6,0.7,1.5,4.8-1.1,4.1c-4-1.1-8-2.2-12-3.2
				C157.7,55.2,158.8,51.1,161.4,51.8z M69.8,53.4c24.4-10.2,50.5-9.9,76-5.1c2.7,0.5,1.5,4.6-1.1,4.1c-24.9-4.6-50.1-4.8-73.8,5.1
				C68.4,58.5,67.3,54.5,69.8,53.4z M204.7,93.9l-10.2,8l0.1,0.2l0,0l4.5,11.9c0.1,0.3,0.1,0.6,0.1,0.9c0,0.9-0.5,1.7-1.4,2
				c-0.5,0.2-0.9,0.2-1.4,0.1c-0.4-0.1-0.7-0.3-1-0.6c-0.2,0.6-0.7,1.1-1.3,1.3c-0.5,0.2-0.9,0.2-1.4,0.1c-0.7-0.2-1.2-0.7-1.5-1.4
				l-3.4-9.2l-6.1,4.8c-0.6,0.4-1.3,0.6-2,0.4c-0.3-0.1-0.5-0.2-0.7-0.4l-0.9,0.7c-0.6,0.4-1.3,0.6-2,0.4c-0.5-0.1-0.9-0.4-1.1-0.8
				c-0.3-0.4-0.5-0.9-0.5-1.4c-0.1,0-0.1,0-0.2,0c-0.4-0.1-0.8-0.3-1.1-0.6c-0.3,0.7-0.9,1.3-1.7,1.4c-0.2,0-0.5,0-0.8,0
				c-0.9-0.2-1.6-0.9-1.7-1.8l-0.8-5.6l-6.8-1.5l-2.2,3.4c-0.5,0.8-1.5,1.1-2.4,0.9c-0.3-0.1-0.5-0.1-0.7-0.3
				c-0.1-0.1-0.2-0.2-0.3-0.3l-0.2,0.4c-0.5,0.8-1.5,1.1-2.4,0.9c-0.3-0.1-0.5-0.1-0.7-0.3c-0.5-0.3-0.8-0.8-1-1.4l-0.6-0.1
				c-0.5,0.7-1.3,1-2.1,0.9l-13-1.7c-0.1,0-0.1,0-0.1,0c0,0,0,0,0,0c-1.1-0.1-1.9-1.1-1.9-2.2c-0.4,0.4-1,0.7-1.6,0.7l-1.9-0.1
				c-0.4,0.5-1.1,0.8-1.7,0.8l-3.9-0.1l-9.2-0.3c-0.1,0-0.1,0-0.1,0l0,0c-1.1,0-2-0.9-2.1-1.9c-0.2,0.3-0.5,0.5-0.8,0.6
				c-0.2,0.1-0.5,0.2-0.9,0.2c0,0,0,0,0,0c-0.4,0-1,0-1.6-0.3c0,0-0.1-0.1-0.1-0.1c-0.2,0.4-0.6,0.7-1,0.9c-0.2,0.1-0.5,0.2-0.9,0.2
				c0,0,0,0,0,0c-0.4,0-1,0-1.6-0.3c-0.6-0.3-1.1-0.7-1.4-1.3c-0.7-1.1-1.1-2.5-1.3-4.7c-0.1-0.7-0.3-1.1-0.5-1.5
				c0-0.1-0.1-0.1-0.1-0.2c-0.3-0.4-0.8-0.8-1.3-1c-0.9-0.5-2-0.7-2.4-0.7L98,94.2l0.2,2.2l0.6,6.2c0.1,1.2-0.8,2.3-2,2.4
				c-0.7,0.1-1.3-0.2-1.8-0.6c-0.3,0.7-1,1.3-1.9,1.4c-1.2,0.1-2.3-0.8-2.4-2L90,97l-1.7-16.9c-0.1-1.2,0.7-2.3,2-2.4c0,0,0,0,0,0
				l2.3-0.2c0.3-0.3,0.8-0.5,1.3-0.6c0,0,0,0,0,0l6.8-0.7c0.6-0.1,1.2-0.1,1.7,0c4.2,0.2,7.6,3.5,8.1,7.8c0.3,2.7-0.7,5.1-2.5,6.9
				c0.6,0.3,1.1,0.8,1.6,1.3c0.8,0.9,1.3,2,1.6,3.3c0.1,0.3,0.1,0.6,0.2,0.9c0.1,1.2,0.3,2,0.4,2.4c0.5,0.1,0.9,0.4,1.3,0.8l0.1-4.1
				l0.5-17.3c0-1.3,1-2.2,2.3-2.2l0,0c0,0,0,0,0.1,0l1.7,0c0.4-0.5,1.1-0.9,1.8-0.9l0,0c0,0,0,0,0.1,0l13.1,0.4
				c0.4,0,0.9,0.2,1.2,0.4c0.6,0.4,1,1.1,1,1.9c0,1.3-1.1,2.2-2.3,2.2l-1.9-0.1c-0.4,0.5-1.1,0.8-1.7,0.8l-7.3-0.2l-0.2,6.6l9.4,0.3
				c1.2,0,2.2,1.1,2.2,2.3c0,1.3-1.1,2.2-2.3,2.2l-1.9-0.1c-0.4,0.5-1,0.8-1.7,0.8l-5.8-0.2l-0.1,2.4l-0.1,4.2l2.9,0.1l8,0.2
				c0.7,0,1.4,0.5,1.8,1.1l2.8-21.3c0.2-1.2,1.2-2.1,2.5-1.9c0.5,0.1,1,0.3,1.3,0.6c0.1-0.2,0.2-0.5,0.4-0.6c0.5-0.5,1.2-0.8,2-0.7
				c1.2,0.2,2.1,1.3,2,2.5l-2.8,21.4l10.9,1.4c0.1,0,0.2,0,0.3,0.1L165.4,83c0.5-0.8,1.5-1.2,2.4-0.9c0.4,0.1,0.7,0.2,0.9,0.4
				l0.2-0.4c0.5-0.8,1.5-1.2,2.4-0.9c0.7,0.1,1.3,0.6,1.6,1.2c0.1,0.2,0.2,0.5,0.3,0.8l3.5,23.7l0.2,1l8.6-6.8L181,89
				c-0.4-1.2,0.2-2.4,1.3-2.8c0.8-0.3,1.7-0.1,2.3,0.4c0.2-0.6,0.7-1,1.3-1.2c0.9-0.4,1.8-0.1,2.4,0.5c0.2,0.2,0.4,0.5,0.5,0.8
				l3.4,9.2l6-4.7c0.8-0.7,1.9-0.7,2.6-0.1l1-0.8c1-0.8,2.4-0.6,3.1,0.4c0.1,0.1,0.2,0.3,0.3,0.4C205.8,92,205.5,93.2,204.7,93.9z
				 M235.7,112.2c0,0.5-0.1,1.1-0.3,1.6c-0.3,1-0.9,1.8-1.6,2.4c-0.1,0.1-0.1,0.1-0.2,0.2c-0.1,0.1-0.3,0.2-0.4,0.3
				c-0.1,0.1-0.2,0.1-0.3,0.2c0,0,0,0,0,0c-0.1,0.1-0.3,0.1-0.4,0.2c-0.2,0-0.4,0.1-0.5,0.1c-0.1,0.3-0.2,0.6-0.3,0.9
				c-1.3,4.1-5.1,6.7-9.2,6.7c-2.1,0.9-4.4,1-6.7,0.3c-5.1-1.6-7.9-7.1-6.3-12.2c0.9-2.7,2.8-4.8,5.2-5.8c-0.3-1.3-0.3-2.7,0.1-4.1
				c1.1-3.3,4.2-5.4,7.5-5.2c1.7-0.8,3.7-1,5.6-0.4c4,1.3,6.1,5.5,4.9,9.4c-0.4,1.2-1.6,1.8-2.8,1.4c-0.4-0.1-0.7-0.3-0.9-0.6
				c-0.4,1.1-1.6,1.7-2.7,1.3c-1.2-0.4-1.9-1.6-1.5-2.8c0.5-1.5-0.2-3-1.6-3.6c-0.3,0.3-0.5,0.6-0.6,1c-0.3,1-0.1,2,0.5,2.7
				c0.3,0.5,0.5,1.1,0.4,1.6c0,0.5-0.3,1.1-0.7,1.5c0,0,0,0,0,0c0,0-0.1,0.1-0.1,0.1c-0.2,0.1-0.4,0.2-0.6,0.3c-0.1,0-0.1,0.1-0.1,0
				c-0.1,0-0.1,0-0.1,0c-0.1,0-0.1,0-0.2,0.1c-0.1,0-0.1,0-0.2,0.1c0,0,0-0.1,0-0.1c-1.8,0.3-3.4,1.7-4,3.6c0,0.1-0.1,0.3-0.1,0.4
				c0.4-0.3,0.8-0.7,1.3-0.9c1-0.5,2.2-0.7,3.5-0.6c0.1,0,0.1-0.1,0.2-0.1c1.4-0.7,3.3-0.9,5.4-0.4c0.4-0.8,1.2-1.4,2.2-1.3
				c0.5,0,1,0.3,1.4,0.6c0.2-0.6,0.7-1,1.4-1.2c0.3-0.1,0.6-0.1,0.9-0.1C234.9,109.8,235.9,110.9,235.7,112.2z M294.3,117.6
				l-2.9,14.1c-1.1,5.3-5.7,9.1-11,9.3c-2,0.8-4.2,1-6.5,0.5c-6.4-1.3-10.4-7.5-9.1-13.8l1.2-6c-0.8,1-1.9,1.7-3.1,2.2
				c0.1,0.1,0.1,0.2,0.2,0.4c0,0,0.1,0,0.1-0.1c0.3,0.4,0.5,0.9,0.7,1.4c0.5,1.3,0.6,2.9,0.1,4.6c-0.4,1.2-0.4,1.9-0.5,2.3
				c0.6,0.4,0.9,1,1,1.7c0.1,1-0.5,1.8-1.4,2.2c-0.3,0.1-0.6,0.2-0.9,0.2c-0.2,0-0.5,0-0.9-0.1c0,0,0,0,0,0
				c-0.2-0.1-0.5-0.2-0.8-0.4c-0.3,0.7-1.1,1.2-1.9,1.3c-0.2,0-0.5,0-0.9-0.1c0,0,0,0,0,0c-0.4-0.1-0.9-0.4-1.4-0.9
				c-0.4-0.5-0.7-1.1-0.9-1.7c-0.2-1.3-0.1-2.8,0.5-4.9c0.2-0.7,0.2-1.3,0-1.8c-0.1-0.5-0.5-1-0.8-1.5c-0.7-0.8-1.6-1.4-1.9-1.6
				l-1.4-0.4l-1.9,6.8c-0.3,1.2-1.6,1.9-2.8,1.5c-0.4-0.1-0.7-0.3-0.9-0.6c-0.4,1-1.6,1.6-2.7,1.3c-1.2-0.3-1.9-1.6-1.5-2.7
				l6.6-22.9c0.3-1.2,1.5-1.9,2.7-1.5c0,0,0,0,0,0l1,0.3c0.4-0.6,1-1.1,1.7-1.1c0.1,0,0.2,0,0.2,0c0,0,0,0,0.1,0
				c0.2,0,0.4,0,0.6,0.1c0,0,0,0,0,0l3,0.9l3.8,1c1.2,0.3,2.3,0.9,3.2,1.7c0,0,0,0,0,0c0.2,0.2,0.4,0.3,0.6,0.5
				c0.1,0.1,0.2,0.3,0.4,0.4c0.1,0.2,0.3,0.3,0.4,0.5c0.2,0.2,0.4,0.5,0.5,0.8c0,0.1,0.1,0.1,0.1,0.2c0.3,0.6,0.6,1.2,0.8,1.8
				c0.3-1.1,1.4-1.8,2.6-1.5c0.4,0.1,0.7,0.2,1,0.5c0.4-1,1.4-1.6,2.5-1.4c0.5,0.1,0.9,0.4,1.2,0.7c0.6,0.5,0.9,1.3,0.7,2.1
				l-2.9,14.1c-0.4,1.9,0,3.9,1,5.4c1,1.5,2.6,2.6,4.4,2.9c0.5,0.1,1,0.1,1.4,0.1c1.8-1,3.1-2.7,3.5-4.8l2.9-14.1
				c0.3-1.2,1.4-2,2.7-1.7c0.4,0.1,0.7,0.2,0.9,0.4c0.4-1,1.5-1.6,2.6-1.4c0.6,0.1,1.1,0.5,1.4,1C294.2,116.3,294.4,117,294.3,117.6
				z M337,116.6l-5.8,12.8l2.2,10.7c0.3,1.2-0.5,2.4-1.7,2.6c-0.4,0.1-0.7,0-1.1-0.1c0,0,0,0,0,0c0,0,0,0,0,0
				c-0.3-0.1-0.7-0.3-0.9-0.5c-0.3,0.7-0.8,1.2-1.6,1.4c-1.1,0.2-2.4-0.5-2.6-1.7l-2.2-10.7l-8.3-7.6c0,0.3,0,0.6,0,0.9
				c-0.1,1.7-0.7,3.3-1.7,4.5c1.7,1.2,2.9,2.9,3.5,4.9c0,0.1,0.1,0.2,0.1,0.3c0,0.2,0.1,0.4,0.1,0.5c0,0.2,0.1,0.4,0.1,0.6
				c0,0.1,0,0.2,0,0.3c0,0.3,0,0.5,0,0.8c-0.1,3.9-2.8,7.1-6.3,8.1c0,0,0,0,0.1,0c-0.8,0.2-1.7,0.4-2.6,0.3
				c-1.2,0.5-2.5,0.8-3.9,0.7l-7.1-0.3c0,0,0,0,0,0c-0.1,0-0.1,0-0.1,0c-1.2-0.1-2.2-1.1-2.1-2.3l1-23.8c0.1-1.3,1.1-2.2,2.3-2.1
				c0,0,0,0,0.1,0c0,0,0,0,0,0l1.6,0.1c0.2-0.2,0.5-0.4,0.7-0.5c0.3-0.2,0.7-0.3,1.2-0.3c0,0,0,0,0.1,0c0,0,0,0,0,0l5.6,0.2
				c2,0.1,3.7,0.9,5,2.2c0,0,0,0,0,0c0.8-0.9,2.2-1,3.1-0.2l0.1,0.1c0.1-0.2,0.2-0.5,0.4-0.7c0.8-0.9,2.2-1,3.1-0.1l0,0c0,0,0,0,0,0
				l6.3,5.7l3.5-7.8c0.5-1.1,1.8-1.6,2.9-1.1c0.2,0.1,0.4,0.3,0.6,0.4l0-0.1c0.5-1.1,1.9-1.6,2.9-1.1l0,0c0,0,0,0,0,0
				C337,114.2,337.5,115.5,337,116.6z"/>
			<path fill="#EF4C6A" d="M304.8,132.6l-1.4-0.1l-0.3,7.5l4,0.2c1-0.7,1.7-1.9,1.8-3.2C308.9,134.7,307.1,132.8,304.8,132.6z"/>
			<path fill="#EF4C6A" d="M220.9,119.4c-0.4-0.1-0.7-0.3-0.9-0.5c-0.1,0.2-0.2,0.3-0.3,0.5c0.4,0.2,0.8,0.5,1.3,0.6
				c0.3,0.1,0.5,0.1,0.8,0.2c0.5-0.3,0.9-0.7,1.3-1.2c-0.4,0.4-1,0.6-1.6,0.6C221.3,119.5,221.1,119.5,220.9,119.4z"/>
			<path fill="#EF4C6A" d="M97.9,81.4l-1.3,0.1l0.8,7.9l3-0.3c1.4-0.8,2.2-2.3,2.1-4C102.3,82.8,100.2,81.1,97.9,81.4z"/>
		</g>
		<g>
			<path fill="#D6405A" d="M397.7,105.6l-17.7-45.1l11.5-44.5c0.4-1.5-0.8-2.9-2.3-2.8l-90.2,6.1L360.2,63c0,0,0,0,0,0
				c0,0,0.1,0,0.1,0l3.3,47.8l32.1-2.2C397.2,108.5,398.2,107,397.7,105.6z"/>
			<path fill="#D6405A" d="M69.2,146.3c-0.1,0-0.2,0.1-0.3,0.1l-3.3-47.8l-32.1,2.2c-1.5,0.1-2.5,1.6-1.9,3.1L49.4,149l-11.5,44.5
				c-0.4,1.5,0.8,2.9,2.3,2.8l90.2-6.1l-61.3-43.8C69.1,146.4,69.1,146.3,69.2,146.3z"/>
			<path fill="#D6405A" d="M105,94.1c-0.9-0.5-2-0.7-2.4-0.7l-4.7,0.5l0,0.4l1.1-0.1c0.4,0,1.4,0.3,2.4,0.7c0.5,0.3,1,0.6,1.3,1
				c0,0.1,0.1,0.1,0.1,0.2c0.3,0.4,0.4,0.8,0.5,1.5c0.2,2.2,0.7,3.6,1.3,4.7c0.4,0.5,0.9,1,1.4,1.3c0.6,0.3,1.2,0.3,1.6,0.3
				c0,0,0,0,0,0c0.4,0,0.7-0.2,0.9-0.2c0.4-0.2,0.8-0.5,1-0.9c-0.5-0.3-1-0.7-1.3-1.2c-0.7-1.1-1.1-2.5-1.3-4.7
				c-0.1-0.4-0.2-0.7-0.3-1c-0.1-0.3-0.2-0.5-0.4-0.7C106.1,94.8,105.5,94.4,105,94.1z"/>
			<path fill="#D6405A" d="M97.9,81.4c2.3-0.2,4.3,1.4,4.6,3.8c0.2,1.7-0.7,3.2-2.1,4l2-0.2c2.3-0.2,4-2.3,3.7-4.5
				c-0.2-2.3-2.3-4-4.6-3.8l-4.9,0.5l0,0.4L97.9,81.4z"/>
			<path fill="#D6405A" d="M90,97l0.7,6.8c0.1,1.2,1.2,2.1,2.4,2c0.9-0.1,1.5-0.6,1.9-1.4c-0.4-0.4-0.6-0.8-0.6-1.3l-0.6-6.3
				l-1.8-17.4c0-0.3,0-0.5,0-0.7l0,0c0.1-0.5,0.3-0.9,0.7-1.2l-2.3,0.2c0,0,0,0,0,0c-1.2,0.1-2.1,1.2-2,2.4L90,97z"/>
			<path fill="#D6405A" d="M129,91.8l-7.5-0.2l0,0.8l5.8,0.2C127.9,92.6,128.5,92.3,129,91.8z"/>
			<path fill="#D6405A" d="M121.8,80.6l7.3,0.2c0.7,0,1.3-0.3,1.7-0.8l-9-0.2L121.8,80.6z"/>
			<path fill="#D6405A" d="M115.2,104.2L115.2,104.2c0,0,0,0,0.1,0l9.2,0.3l3.9,0.1c0.7,0,1.3-0.3,1.7-0.8l-5.7-0.2l-5.5-0.2
				c-0.1,0-0.1,0-0.1,0l0,0c-1.3,0-2.2-1.1-2.2-2.3l0.2-6l0.5-17.8c0-0.1,0-0.2,0-0.3l-0.1,0c0.1-0.4,0.2-0.8,0.4-1.1l-1.7,0
				c-0.1,0-0.1,0-0.1,0l0,0c-1.3,0-2.2,0.9-2.3,2.2l-0.5,17.3l-0.1,4.1c0.1,0.1,0.2,0.3,0.3,0.5c0.4,0.8,0.2,1.7-0.3,2.3
				C113.2,103.4,114.1,104.2,115.2,104.2z"/>
			<path fill="#D6405A" d="M139.3,104.6C139.3,104.6,139.3,104.6,139.3,104.6c-1.3-0.2-2.1-1.3-2-2.5l3.1-23.6c0,0,0,0,0,0l0-0.1
				c0-0.2,0.1-0.4,0.2-0.5c-0.3-0.3-0.8-0.6-1.3-0.6c-1.2-0.2-2.3,0.7-2.5,1.9l-2.8,21.3c0.2,0.4,0.4,0.8,0.3,1.2
				c0,0.6-0.3,1.1-0.7,1.5c0,1.1,0.8,2,1.9,2.2c0,0,0,0,0,0c0,0,0,0,0.1,0l13,1.7c0.8,0.1,1.6-0.3,2.1-0.9L139.3,104.6
				C139.3,104.6,139.3,104.6,139.3,104.6z"/>
			<path fill="#D6405A" d="M171.7,103.4l-9.6-2.1l-0.9,1.3l6.8,1.5l0.8,5.6c0.1,0.9,0.9,1.6,1.7,1.8c0.3,0.1,0.6,0.1,0.8,0
				c0.8-0.1,1.5-0.7,1.7-1.4c-0.3-0.3-0.5-0.7-0.6-1.2L171.7,103.4z"/>
			<path fill="#D6405A" d="M155.3,103.6l13.1-20.4c0,0-0.1,0-0.1,0l0.5-0.7c-0.3-0.2-0.6-0.4-0.9-0.4c-0.9-0.2-1.8,0.1-2.4,0.9
				l-12.1,18.9c1,0.3,1.7,1.3,1.6,2.4c-0.2,1.2-1.3,2.1-2.5,1.9l-1-0.1c0.1,0.5,0.5,1,1,1.4c0.2,0.1,0.4,0.2,0.7,0.3
				c0.9,0.2,1.8-0.2,2.4-0.9l0.2-0.4C154.9,105.8,154.8,104.6,155.3,103.6z"/>
			<polygon fill="#D6405A" points="167.2,97.9 171.1,98.7 169.7,89.6 166.6,94.3 			"/>
			<path fill="#D6405A" d="M198.3,91.1l-6,4.7l0.6,1.6l8.1-6.4C200.1,90.5,199.1,90.5,198.3,91.1z"/>
			<path fill="#D6405A" d="M179,108.4l10.2-8l-4.6-12.1c-0.1-0.3-0.1-0.6-0.1-0.8c0,0,0,0-0.1,0c0-0.3,0.1-0.5,0.2-0.8
				c-0.6-0.6-1.5-0.8-2.3-0.4c-1.2,0.4-1.7,1.7-1.3,2.8l4.6,12.1l-8.6,6.8l0,0.3c0,0,0,0,0,0l0,0.1c0.1,1.2-0.7,2.4-1.9,2.6
				c-0.2,0-0.4,0-0.6,0c0,0.5,0.1,1,0.5,1.4c0.3,0.4,0.7,0.6,1.1,0.8c0.7,0.2,1.4,0,2-0.4l0.9-0.7c-0.1-0.1-0.3-0.2-0.4-0.4
				C177.9,110.5,178.1,109.1,179,108.4z"/>
			<path fill="#D6405A" d="M190.8,104.7l-3,2.4l3.4,9.2c0.3,0.7,0.8,1.2,1.5,1.4c0.4,0.1,0.9,0.1,1.4-0.1c0.6-0.2,1.1-0.7,1.3-1.3
				c-0.2-0.2-0.4-0.5-0.5-0.8L190.8,104.7z"/>
			<path fill="#D6405A" d="M213.3,112c0.9-2.7,2.8-4.8,5.2-5.8c-0.3-1.3-0.3-2.7,0.1-4.1c0.2-0.5,0.4-1,0.6-1.5c0,0,0,0,0,0
				c0.4-0.6,0.8-1.2,1.3-1.7c0,0,0,0,0.1-0.1c0.1-0.1,0.3-0.2,0.4-0.3c0.1-0.1,0.1-0.1,0.2-0.2c0.1-0.1,0.1-0.1,0.2-0.2
				c0.3-0.2,0.7-0.4,1.1-0.6c-3.3-0.2-6.5,1.9-7.5,5.2c-0.4,1.4-0.5,2.8-0.1,4.1c-2.4,1.1-4.3,3.1-5.2,5.8
				c-1.6,5.1,1.2,10.6,6.3,12.2c2.3,0.7,4.6,0.6,6.7-0.3c-1,0-2-0.1-3.1-0.5C214.5,122.6,211.7,117.1,213.3,112z"/>
			<path fill="#D6405A" d="M225,106c-0.4,1.2,0.3,2.4,1.5,2.8c1.1,0.4,2.3-0.2,2.7-1.3c-0.6-0.6-0.8-1.4-0.6-2.2
				c0.5-1.6-0.3-3.3-2-3.8c-1.2-0.4-2.5,0-3.2,0.9C224.8,103.1,225.5,104.6,225,106z"/>
			<path fill="#D6405A" d="M222.3,112.2c-1.3-0.1-2.5,0.2-3.5,0.6c-0.5,0.2-0.9,0.6-1.3,0.9c-0.5,2.2,0.4,4.4,2.2,5.5
				c0.1-0.1,0.2-0.3,0.3-0.5c-0.4-0.4-0.7-1-0.6-1.6c0-0.1,0-0.8,0.3-1.7C219.9,114.5,220.7,113.1,222.3,112.2z"/>
			<path fill="#D6405A" d="M224.5,116.1c-0.4,0.2-0.5,0.4-0.6,0.7c0,0.1,0,0.1,0,0.2c0,0,0.1,0,0.1,0c0,0.1-0.1,0.2-0.1,0.2
				c0,0.1-0.1,0.3-0.2,0.4c-0.1,0.5-0.3,0.9-0.7,1.2c-0.4,0.5-0.8,0.9-1.3,1.2c2.5,0.4,5-1,5.8-3.5c0,0,0-0.2,0.1-0.2
				C225.6,115.7,224.8,116,224.5,116.1z"/>
			<path fill="#D6405A" d="M227.9,111.8c0.4,0.1,0.8,0.2,1.2,0.3c0.4,0.1,0.8,0.3,1.3,0.4c0,0,0.1,0,0.2,0c0.2,0,0.3,0.1,0.4,0.1
				c0.1,0,0.1,0,0.1,0c0,0,0,0,0.1-0.3c0-0.1,0-0.1,0.1-0.2c0,0,0,0-0.1,0c0-0.1,0-0.2,0.1-0.3c0-0.3,0.1-0.5,0.2-0.7
				c-0.4-0.3-0.8-0.6-1.4-0.6C229.1,110.4,228.2,110.9,227.9,111.8z"/>
			<path fill="#D6405A" d="M245.7,130.1l6.4-22.4c0,0-0.1,0-0.1,0l0.1-0.5c0.1-0.2,0.1-0.4,0.2-0.5l-1-0.3c0,0,0,0,0,0
				c-1.2-0.3-2.4,0.3-2.7,1.5l-6.6,22.9c-0.3,1.2,0.3,2.4,1.5,2.7c1.1,0.3,2.3-0.3,2.7-1.3C245.7,131.8,245.5,131,245.7,130.1z"/>
			<path fill="#D6405A" d="M260.7,112l-4.8-1.4l-0.5,1.6l1.6,0.5c2.2,0.6,3.5,2.9,2.8,5.2c-0.2,0.9-0.8,1.6-1.4,2.1
				c2.2,0.6,4.4-0.7,5.1-2.8C264.2,114.9,262.9,112.6,260.7,112z"/>
			<path fill="#D6405A" d="M259.2,134c-0.2-1.3-0.1-2.8,0.5-4.9c0.2-0.7,0.2-1.3,0-1.8c-0.1-0.5-0.5-1-0.8-1.5
				c-0.7-0.8-1.6-1.4-1.9-1.6l-4.6-1.3l-0.5,1.6l1.4,0.4c0.3,0.2,1.2,0.8,1.9,1.6c0.4,0.4,0.7,1,0.8,1.5c0.1,0.5,0.2,1.1,0,1.8
				c-0.6,2.1-0.7,3.6-0.5,4.9c0.2,0.6,0.4,1.3,0.9,1.7c0.4,0.5,1,0.8,1.4,0.9c0,0,0,0,0,0c0.4,0.1,0.7,0.1,0.9,0.1
				c0.8,0,1.6-0.5,1.9-1.3c-0.2-0.1-0.4-0.3-0.6-0.5C259.7,135.2,259.4,134.6,259.2,134z"/>
			<path fill="#D6405A" d="M289.7,116.7l0-0.1c0-0.1,0.1-0.2,0.1-0.3c-0.3-0.2-0.6-0.4-0.9-0.4c-1.2-0.3-2.4,0.5-2.7,1.7l-2.9,14.1
				c-0.4,2.1-1.8,3.8-3.5,4.8c1,0,1.9-0.2,2.8-0.6c-0.1,0.1-0.2,0.2-0.3,0.3c2.3-0.8,4.2-2.8,4.7-5.3l2.9-14.1c0,0,0,0,0,0
				c0,0,0,0-0.1,0C289.8,116.7,289.7,116.7,289.7,116.7z"/>
			<path fill="#D6405A" d="M268.5,127l2.9-14.1c0,0-0.1,0-0.1,0c0,0,0,0-0.1,0l0-0.1c0-0.1,0.1-0.2,0.1-0.4c-0.3-0.2-0.6-0.4-1-0.5
				c-1.2-0.2-2.2,0.4-2.6,1.5c0.5,1.6,0.5,3.3,0,5c-0.4,1.3-1,2.4-1.8,3.3l-1.2,6c-1.3,6.3,2.7,12.5,9.1,13.8
				c2.3,0.5,4.5,0.2,6.5-0.5c-0.9,0-1.9,0-2.9-0.2C271.2,139.5,267.2,133.3,268.5,127z"/>
			<path fill="#D6405A" d="M307.1,127.3c1.8,0.1,3.3-1.4,3.3-3.1s-1.3-3.3-3.1-3.3l-3.5-0.2l0,0.9c1.7,0.1,3,1.6,2.9,3.3
				c0,0.9-0.5,1.8-1.1,2.3L307.1,127.3z"/>
			<path fill="#D6405A" d="M300.8,144.4C300.7,144.4,300.7,144.4,300.8,144.4c-0.1,0-0.1,0-0.2,0c-1.2-0.1-2.2-1.1-2.1-2.3l1-23.8
				c0-0.2,0.1-0.4,0.1-0.6l-0.1,0c0.1-0.3,0.3-0.5,0.4-0.7l-1.6-0.1c0,0,0,0,0,0c-0.1,0-0.1,0-0.1,0c-1.2-0.1-2.3,0.9-2.3,2.1
				l-1,23.8c-0.1,1.2,0.9,2.3,2.1,2.3c0,0,0,0,0.1,0c0,0,0,0,0,0l7.1,0.3c1.4,0.1,2.7-0.2,3.9-0.7c-0.1,0-0.2,0-0.2,0L300.8,144.4z"
				/>
			<path fill="#D6405A" d="M308.5,131.9l-5-0.2l0,0.9l1.4,0.1c2.3,0.1,4.1,2,4,4.3c-0.1,1.4-0.8,2.5-1.8,3.2l1.1,0
				c2.3,0.1,4.2-1.7,4.3-4C312.6,133.9,310.8,132,308.5,131.9z"/>
			<path fill="#D6405A" d="M332.2,114.4c-1.1-0.5-2.4,0-2.9,1.1l-3.5,7.8l2.4,2.1l4.7-10.3c0,0,0,0,0,0l0.1-0.3
				C332.7,114.7,332.5,114.5,332.2,114.4z"/>
			<path fill="#D6405A" d="M326.8,130.3l-10.4-9.4c-0.7-0.6-0.9-1.4-0.7-2.2c0,0,0,0,0,0c0-0.1,0.1-0.2,0.1-0.3l-0.1-0.1
				c-0.9-0.8-2.3-0.8-3.1,0.2c0,0,0,0,0,0c1.3,1.3,2.1,3,2.3,4.9l8.3,7.6l2.2,10.7c0.3,1.2,1.5,2,2.6,1.7c0.8-0.2,1.4-0.7,1.6-1.4
				c-0.3-0.3-0.5-0.7-0.6-1.1L326.8,130.3z"/>
		</g>
		<g>
			<path fill="#FFFFFF" d="M113.1,99.5c-0.3-0.4-0.8-0.7-1.3-0.8c-0.1-0.4-0.3-1.1-0.4-2.4c0-0.3-0.1-0.6-0.2-0.9
				c-0.3-1.3-0.9-2.4-1.6-3.3c-0.5-0.6-1-1-1.6-1.3c1.8-1.8,2.7-4.3,2.5-6.9c-0.4-4.3-3.9-7.5-8.1-7.8c3.8,0.3,7.1,3,7.9,6.8
				c0.6,3-0.4,5.8-2.3,7.8c0.6,0.4,1.1,0.8,1.6,1.3c0.8,0.9,1.3,2,1.6,3.4c0.1,0.3,0.1,0.6,0.2,0.9c0.1,1.2,0.3,2,0.4,2.4
				c0.5,0.1,1,0.4,1.3,0.9c0.1,0.1,0.1,0.2,0.2,0.3c0.3,0.8,0.2,1.6-0.2,2.2c-0.2,0.3-0.5,0.6-0.9,0.7c-0.2,0.1-0.5,0.2-0.9,0.2
				c0,0,0,0,0,0c-0.1,0-0.2,0-0.4,0c0.1-0.4,0-0.9-0.2-1.3c-0.2-0.4-0.5-0.8-0.9-1c-0.2-0.1-0.4-0.2-0.6-0.2
				c-0.1-0.2-0.1-0.4-0.2-0.8c-0.1-0.4-0.2-0.9-0.2-1.6c-0.1-0.9-0.3-1.7-0.7-2.5c-0.3-0.6-0.7-1.2-1.1-1.7c0,0,0,0,0,0
				c-0.7-0.9-0.8-2-0.2-3c1.1-1.8,1.5-3.9,1-6.2c-0.4-1.8-1.3-3.3-2.6-4.5c-1.8-1.7-4.4-2.6-7.1-2.4L92,78.6c-0.1,0.2-0.1,0.5,0,0.7
				l1.8,17.4l0.6,6.3c0.1,0.5,0.3,1,0.6,1.3c0.5,0.5,1.1,0.7,1.8,0.6c1.2-0.1,2.1-1.2,2-2.4l-0.6-6.2L98,94.2l0-0.4l4.7-0.5
				c0.4,0,1.4,0.3,2.4,0.7c0.5,0.3,1,0.6,1.3,1c0.2,0.2,0.3,0.4,0.4,0.7c0.1,0.3,0.2,0.6,0.3,1c0.2,2.2,0.7,3.6,1.3,4.7
				c0.4,0.5,0.8,0.9,1.3,1.2c0,0,0.1,0.1,0.1,0.1c0.6,0.3,1.2,0.3,1.6,0.3c0,0,0,0,0,0c0.4,0,0.7-0.2,0.9-0.2
				c0.3-0.1,0.6-0.4,0.8-0.6c0.5-0.6,0.7-1.5,0.3-2.3C113.3,99.8,113.2,99.7,113.1,99.5z M102.4,88.9l-2,0.2l-3,0.3l-0.8-7.9l0-0.4
				l4.9-0.5c2.3-0.2,4.3,1.4,4.6,3.8C106.4,86.6,104.7,88.7,102.4,88.9z"/>
			<path fill="#FFFFFF" d="M121.8,79.7l9,0.2l1.9,0.1c1.2,0,2.2-0.9,2.3-2.2c0-0.8-0.4-1.5-1-1.9c0.6,0.4,1,1.1,0.9,1.9
				c0,1.3-1.1,2.2-2.3,2.2l-0.3,0c0-0.1,0-0.2,0-0.3c0-0.9-0.5-1.7-1.2-2c-0.3-0.1-0.6-0.2-0.9-0.3L117.4,77c0,0.1,0,0.2,0,0.3
				l-0.5,17.8l-0.2,6c0,1.2,0.9,2.2,2.2,2.3l0,0c0,0,0,0,0.1,0l5.5,0.2l5.7,0.2l1.9,0.1c0.6,0,1.2-0.3,1.6-0.7
				c0.4-0.4,0.6-0.9,0.7-1.5c0-0.5-0.1-0.9-0.3-1.2c-0.4-0.6-1.1-1.1-1.8-1.1l-8-0.2l-2.9-0.1l0.1-4.2l0.1-2.4l0-0.8l7.5,0.2
				l1.9,0.1c1.2,0,2.2-0.9,2.3-2.2c0-1.2-0.9-2.2-2.2-2.3l-9.4-0.3l0.2-6.6L121.8,79.7z"/>
			<path fill="#FFFFFF" d="M153.3,101.9c-0.1,0-0.2-0.1-0.3-0.1l-10.9-1.4l2.8-21.4c0.2-1.2-0.7-2.3-2-2.5c-0.8-0.1-1.5,0.2-2,0.7
				c0.5-0.5,1.2-0.8,2-0.7c1.2,0.2,2.1,1.3,1.9,2.5l-2.9,21.4l10.9,1.5c0.1,0,0.3,0.1,0.4,0.1c0.5,0.2,1,0.6,1.2,1
				c0,0-0.2,0.9-2.5,0.9c-0.3,0-0.6,0-0.9,0c-0.2,0-0.5,0-0.7-0.1l-10.9-1.5l0.1-1.1l2.7-20.3c0.1-1-0.4-1.9-1.3-2.3
				c-0.2-0.1-0.4-0.2-0.7-0.2c0,0,0,0,0,0l-3.1,23.6c-0.2,1.2,0.7,2.3,1.9,2.5c0,0,0,0,0,0c0,0,0,0,0.1,0l11.4,1.5l0.6,0.1l1,0.1
				c1.2,0.2,2.3-0.7,2.5-1.9C155,103.2,154.3,102.2,153.3,101.9z"/>
			<path fill="#FFFFFF" d="M176.8,106.8l-3.5-23.7c-0.1-0.3-0.2-0.5-0.3-0.8c0.1,0.2,0.2,0.4,0.2,0.7L176.8,106.8z"/>
			<path fill="#FFFFFF" d="M177,108.2c0.1,1.2-0.7,2.4-1.9,2.5c-0.1,0-0.3,0-0.5,0c0-0.1,0-0.3,0-0.4c0,0,0,0,0-0.1l-3.8-25.1
				c-0.1-0.8-0.6-1.4-1.3-1.7c-0.2-0.1-0.3-0.1-0.5-0.2c-0.2,0-0.4-0.1-0.6-0.1l-13.1,20.4c-0.6,0.9-0.4,2.1,0.4,2.9
				c0.1,0.1,0.2,0.2,0.3,0.3c0.2,0.1,0.4,0.2,0.7,0.3c0.9,0.2,1.8-0.1,2.4-0.9l2.2-3.4l0.9-1.3l9.6,2.1l0.8,5.6
				c0.1,0.5,0.3,0.9,0.6,1.2c0.3,0.3,0.7,0.5,1.1,0.6c0.1,0,0.1,0,0.2,0c0.2,0,0.4,0,0.6,0C176.3,110.7,177.1,109.5,177,108.2
				L177,108.2z M167.2,97.9l-2.5-0.5l2-3.1l3-4.7l1.4,9.2L167.2,97.9z"/>
			<path fill="#FFFFFF" d="M204.6,93.7L203,95c0.3-0.7,0.2-1.5-0.3-2.2c-0.3-0.3-0.6-0.6-0.9-0.7c-0.7-0.3-1.5-0.2-2.2,0.4l-6.6,5.2
				c-0.9,0.7-2.1,0.6-2.9-0.1c-0.2-0.2-0.5-0.5-0.6-0.9l-3-7.9c-0.2-0.6-0.7-1.1-1.3-1.3c-0.2-0.1-0.4-0.1-0.7-0.1
				c0,0.3,0,0.6,0.1,0.8l4.6,12.1l-10.2,8c-0.9,0.7-1.1,2.2-0.3,3.1c0.1,0.1,0.2,0.3,0.4,0.4c0.2,0.2,0.5,0.3,0.7,0.4
				c0.7,0.2,1.4,0,2-0.4l6.1-4.8l3-2.4l4,10.8c0.1,0.3,0.3,0.5,0.5,0.8c0.3,0.3,0.6,0.5,1,0.6c0.4,0.1,0.9,0.1,1.4-0.1
				c0.9-0.3,1.4-1.1,1.4-2c-0.1,0.8-0.6,1.6-1.4,1.9c-0.3,0.1-0.6,0.1-0.9,0.1c0-0.3,0-0.5-0.1-0.8l-4-10.6c-0.3-0.9-0.1-2,0.7-2.6
				l1.1-0.9l-0.1-0.2l10.2-8c0.8-0.7,1.1-1.8,0.6-2.8C205.7,92,205.4,93.1,204.6,93.7z"/>
			<path fill="#FFFFFF" d="M192.2,95.9l0.6,1.6l0,0L192.2,95.9l-3.4-9.2c-0.1-0.3-0.3-0.6-0.5-0.8c0.2,0.2,0.3,0.5,0.4,0.7
				L192.2,95.9z"/>
			<path fill="#FFFFFF" d="M233.7,109.7c-0.3,0-0.6,0-0.9,0.1C233,109.8,233.3,109.7,233.7,109.7c1.2,0.1,2.1,1.2,2,2.4
				c0,0.5-0.1,1.1-0.3,1.6c-0.3,1-0.8,1.8-1.5,2.4c0.7-0.6,1.3-1.5,1.6-2.4c0.2-0.5,0.3-1,0.3-1.6
				C235.9,110.9,234.9,109.8,233.7,109.7z"/>
			<path fill="#FFFFFF" d="M232,112.2c-0.2-0.1-0.4-0.1-0.6-0.1c-0.1,0-0.2,0-0.2,0c0,0.1-0.1,0.2-0.1,0.2c-0.1,0.2-0.1,0.3-0.1,0.3
				c-0.1,0-0.1,0-0.1,0c-0.2,0-0.3,0-0.4-0.1c0,0-0.1,0-0.2,0c-0.4-0.2-0.8-0.3-1.3-0.4c-0.4-0.1-0.8-0.2-1.2-0.3
				c-2.1-0.5-4-0.3-5.4,0.4c-0.1,0-0.1,0.1-0.2,0.1c-1.6,0.8-2.4,2.3-2.7,3.3c-0.3,0.9-0.3,1.6-0.3,1.7c0,0.7,0.2,1.2,0.6,1.6
				c0.2,0.2,0.6,0.4,0.9,0.5c0.2,0.1,0.4,0.1,0.6,0.1c0.6,0,1.2-0.2,1.6-0.6c0.3-0.3,0.6-0.7,0.7-1.2c0-0.1,0-0.3,0.1-0.4
				c0,0,0-0.1,0.1-0.3c0-0.1,0-0.1,0-0.2c0.1-0.3,0.2-0.6,0.6-0.7c0.3-0.2,1.1-0.4,3.2,0.2c0,0.1-0.1,0.2-0.1,0.2
				c-0.8,2.5-3.3,3.9-5.8,3.5c-0.3,0-0.5-0.1-0.8-0.2c-0.5-0.1-0.9-0.4-1.3-0.6c-1.8-1.2-2.7-3.4-2.2-5.5c0-0.1,0-0.3,0.1-0.4
				c0.6-1.9,2.2-3.2,4-3.6c0-0.4-0.2-0.8-0.4-1.2c-0.6-0.7-0.8-1.7-0.5-2.7c0.3-1,1-1.9,2-2.2c-0.2,0.9,0.2,1.9,0.7,2.6
				c0.3,0.5,0.5,1,0.4,1.6c0.1-0.6-0.1-1.1-0.4-1.6c-0.6-0.7-0.8-1.7-0.5-2.7c0.1-0.4,0.3-0.7,0.6-1c0.8-0.9,2-1.3,3.2-0.9
				c1.6,0.5,2.5,2.2,2,3.8c-0.3,0.8,0,1.7,0.6,2.2c0.3,0.2,0.6,0.5,0.9,0.6c1.2,0.4,2.4-0.2,2.8-1.4c1.3-4-0.9-8.2-4.9-9.4
				c-1.9-0.6-3.9-0.4-5.6,0.4c-0.4,0.2-0.7,0.4-1.1,0.6c0.3-0.2,0.7-0.4,1.1-0.6c1.6-0.8,3.5-1,5.4-0.4c4,1.2,6.2,5.4,5,9.4
				c-0.3,0.9-1.1,1.5-1.9,1.6c0.5-2.7-0.5-5.4-2.5-7.2c-0.8-0.6-1.6-1.1-2.6-1.4c-2.3-0.7-4.7-0.2-6.5,1.1c-0.3,0.5-0.5,0.9-0.6,1.5
				c-0.4,1.4-0.5,2.8-0.1,4.1c-2.4,1.1-4.3,3.1-5.2,5.8c-1.6,5.1,1.2,10.6,6.3,12.2c1,0.3,2,0.5,3.1,0.5c4.1,0,7.9-2.6,9.2-6.7
				c0.1-0.3,0.2-0.6,0.3-0.9c0.1,0,0.3-0.1,0.5-0.1c0.1-0.1,0.3-0.1,0.4-0.2c0.1-0.2,0.2-0.4,0.2-0.6c0.2-0.5,0.3-1,0.3-1.6
				C233.6,113.5,233,112.6,232,112.2z"/>
			<path fill="#FFFFFF" d="M267,111.6c0.3,0.6,0.6,1.2,0.8,1.9c0.2,0.6,0.3,1.1,0.3,1.7l-0.3,3c0,0,0,0.1,0,0.1
				c-0.3,1.3-1,2.4-1.8,3.3c-0.6,0.6-1.2,1.2-1.9,1.7c0.6-0.8,1.1-1.8,1.4-2.8c0.9-3.4-0.2-6.8-2.7-8.9c-0.9-0.8-2-1.4-3.3-1.8
				l-6.9-1.9c0,0,0,0,0,0c-0.1,0-0.3-0.1-0.4-0.1l-6.4,22.4c-0.2,0.8,0,1.6,0.6,2.2c0.3,0.3,0.6,0.5,0.9,0.6
				c1.2,0.3,2.5-0.3,2.8-1.5l1.9-6.8l0.5-1.6l4.6,1.3c0.3,0.2,1.2,0.8,1.9,1.6c0.4,0.4,0.7,1,0.8,1.5c0.1,0.5,0.2,1.1,0,1.8
				c-0.6,2.1-0.7,3.6-0.5,4.9c0.2,0.6,0.4,1.3,0.9,1.7c0.2,0.2,0.4,0.4,0.6,0.5c0.3,0.2,0.6,0.3,0.8,0.4c0,0,0,0,0,0
				c0.4,0.1,0.7,0.1,0.9,0.1c0.3,0,0.6-0.1,0.9-0.2c-0.2,0.1-0.5,0.2-0.7,0.2c-0.1,0-0.1,0-0.2,0c0-0.1,0-0.1,0-0.2
				c0-0.5-0.2-0.9-0.4-1.2c-0.4-0.5-0.5-1.1-0.4-1.7c0.1-0.3,0.2-0.7,0.3-1.1c0.5-1.6,0.3-3.2-0.1-4.6c0-0.1,0-0.1-0.1-0.2
				c-0.3-0.9-0.1-2,0.7-2.6c0.3-0.2,0.6-0.5,0.9-0.7c-0.1-0.1-0.1-0.2-0.2-0.4c1.2-0.5,2.2-1.3,3.1-2.2c0.8-0.9,1.4-2,1.8-3.3
				c0.5-1.7,0.4-3.4,0-5C267.6,112.8,267.3,112.2,267,111.6z M258.5,120C258.5,120,258.5,120,258.5,120l-4.8-1.4l1.8-6.4l0.5-1.6
				l4.8,1.4c2.2,0.6,3.5,2.9,2.8,5.2C262.9,119.4,260.7,120.6,258.5,120z"/>
			<path fill="#FFFFFF" d="M254.9,105.7l3.2,0.9l-3-0.9c0,0,0,0,0,0c-0.2-0.1-0.4-0.1-0.6-0.1C254.6,105.6,254.7,105.7,254.9,105.7
				C254.9,105.7,254.9,105.7,254.9,105.7z"/>
			<path fill="#FFFFFF" d="M275.6,113.6l-2.9,14.1c-0.4,2,0.1,4,1.1,5.5c-1-1.5-1.4-3.5-1-5.4l2.9-14.1c0.2-0.8-0.1-1.6-0.7-2.1
				C275.6,112.2,275.8,112.9,275.6,113.6z"/>
			<path fill="#FFFFFF" d="M294.1,117.4l-2.9,14.1c-0.7,3.5-3,6.4-6,8c1.7-1.6,2.9-3.7,3.4-6.1l2.9-14.1c0.2-1-0.3-1.9-1.1-2.4
				c-0.2-0.1-0.3-0.2-0.5-0.2c0,0,0,0,0,0l-2.9,14.1c-0.5,2.6-2.4,4.5-4.7,5.3c-1.6,1.6-4,2.4-6.5,1.9c-1.7-0.3-3.1-1.2-4.1-2.5
				c-1.3-1.6-2-3.8-1.5-6l2.9-14.1c0.2-1-0.3-1.9-1.1-2.4c-0.2-0.1-0.4-0.2-0.6-0.2l-2.9,14.1c-1.3,6.3,2.7,12.5,9.1,13.8
				c1,0.2,1.9,0.3,2.9,0.2c5.2-0.2,9.9-3.9,11-9.3l2.9-14.1c0.1-0.7,0-1.3-0.4-1.8C294.1,116.3,294.3,116.8,294.1,117.4z"/>
			<path fill="#FFFFFF" d="M310.7,130.6c-0.1-0.1-0.3-0.2-0.4-0.3c0,0,0,0,0,0c1-1.3,1.6-2.8,1.7-4.5c0.1-2.4-0.9-4.5-2.5-6
				c-1.3-1.2-3-1.9-4.9-2l-4.9-0.2c-0.1,0.2-0.1,0.4-0.1,0.6l-1,23.8c-0.1,1.2,0.9,2.3,2.1,2.3c0,0,0,0,0.1,0c0,0,0,0,0,0l7.1,0.3
				c0.1,0,0.2,0,0.2,0c0.9,0,1.8-0.1,2.6-0.3c2-1.5,3.3-3.9,3.4-6.6C314.2,134.9,312.8,132.3,310.7,130.6z M303.9,120.7l3.5,0.2
				c1.8,0.1,3.1,1.6,3.1,3.3s-1.6,3.2-3.3,3.1l-1.4-0.1l-2-0.1l0.2-5.5L303.9,120.7z M308.1,140.2l-1.1,0l-4-0.2l0.3-7.5l0-0.9
				l5,0.2c2.3,0.1,4.1,2,4,4.3C312.4,138.6,310.4,140.3,308.1,140.2z"/>
			<path fill="#FFFFFF" d="M313.2,128.9c1-1.3,1.7-2.8,1.7-4.5c0-0.3,0-0.6,0-0.9c-0.1-1.9-1-3.6-2.3-4.9c-1.3-1.3-3.1-2.1-5-2.2
				l-5.6-0.2c0,0,0,0,0,0c-0.1,0-0.1,0-0.1,0c-0.4,0-0.8,0.1-1.2,0.3c0.3-0.1,0.6-0.2,1-0.2c0,0,0,0,0.1,0c0,0,0,0,0,0l5.6,0.2
				c2,0.1,3.8,0.9,5.2,2.3c0.3,0.3,0.7,0.7,0.9,1.1c0.7,1,1.1,2.7,1.1,2.7c0.1,0.3,0.1,0.6,0.2,0.9c0,0.3,0,0.6,0,1
				C314.7,126.1,314.1,127.6,313.2,128.9c1.6,1.1,2.9,2.9,3.5,4.9C316.1,131.8,314.9,130.1,313.2,128.9z"/>
			<path fill="#FFFFFF" d="M335.9,113.7C335.9,113.7,335.9,113.7,335.9,113.7c1.1,0.5,1.5,1.8,1.1,2.9l-5.8,12.8l2.2,10.5
				c0.2,0.8,0,1.6-0.6,2.2c-0.6,0.7-1.4,0.8-2.1,0.6c0.3,0.1,0.7,0.1,1.1,0.1c1.2-0.3,2-1.4,1.7-2.6l-2.2-10.7l5.8-12.8
				C337.5,115.5,337,114.2,335.9,113.7z"/>
			<path fill="#FFFFFF" d="M330.6,141.7l-2.1-10c-0.1-0.5,0-0.9,0.2-1.4l5.5-12.1c0.5-1,0-2.3-1-2.8c0,0-0.1-0.1-0.1-0.1
				c-0.1-0.1-0.2-0.1-0.3-0.1l-4.7,10.3l-2.4-2.1l-6.3-5.7c0,0,0,0,0,0l6.3,5.7l0.9,0.8l0,0.1c-0.4,0.8-1.1,1.2-1.8,1.3
				c-0.5,0-0.9,0-1.4-0.3c-0.1-0.1-0.3-0.2-0.4-0.3l-6.4-5.8c-0.2-0.2-0.5-0.4-0.8-0.5c-0.2,0.8,0,1.6,0.7,2.2l10.4,9.4l2.2,10.7
				c0.1,0.4,0.3,0.8,0.6,1.1c0.3,0.3,0.6,0.4,0.9,0.5C330.7,142.4,330.7,142,330.6,141.7z"/>
		</g>
		<g>
			<path fill="#FED95B" d="M113.1,99.7c-0.3-0.5-0.8-0.8-1.3-0.9c-0.1-0.4-0.3-1.1-0.4-2.4c0-0.3-0.1-0.6-0.2-0.9
				c-0.3-1.3-0.8-2.5-1.6-3.4c-0.5-0.6-1-1-1.6-1.3c2-2,3-4.8,2.3-7.8c-0.8-3.8-4.1-6.5-7.9-6.8c-0.6-0.1-1.2-0.1-1.7,0l-6.8,0.7
				c0,0,0,0,0,0c-0.5,0.1-1,0.3-1.3,0.6c-0.3,0.3-0.6,0.7-0.7,1.2l0,0l6.2-0.6c2.7-0.3,5.2,0.7,7.1,2.4c1.3,1.2,2.2,2.7,2.6,4.5
				c0.5,2.3,0,4.4-1,6.2c-0.6,1-0.5,2.1,0.2,3c0,0,0,0,0,0c0.4,0.5,0.8,1.1,1.1,1.7c0.3,0.8,0.6,1.6,0.7,2.5c0,0.7,0.1,1.2,0.2,1.6
				c0.1,0.3,0.1,0.6,0.2,0.8c0.2,0,0.4,0.1,0.6,0.2c0.4,0.2,0.7,0.5,0.9,1c0.2,0.4,0.2,0.9,0.2,1.3c0.1,0,0.3,0,0.4,0c0,0,0,0,0,0
				c0.4,0,0.7-0.2,0.9-0.2c0.4-0.2,0.7-0.4,0.9-0.7c0.5-0.6,0.6-1.5,0.2-2.2C113.3,99.9,113.2,99.8,113.1,99.7z"/>
			<path fill="#FED95B" d="M134,75.9c-0.4-0.2-0.8-0.4-1.2-0.4l-13.1-0.4c-0.1,0-0.1,0-0.1,0l0,0c-0.8,0-1.4,0.3-1.8,0.9
				c-0.2,0.3-0.4,0.7-0.4,1.1l0.1,0l12.9,0.4c0.3,0,0.7,0.1,0.9,0.3c0.7,0.4,1.2,1.1,1.2,2c0,0.1,0,0.2,0,0.3l0.3,0
				c1.2,0,2.3-0.9,2.3-2.2C135,77,134.6,76.3,134,75.9z"/>
			<path fill="#FED95B" d="M153.2,102c-0.1,0-0.3-0.1-0.4-0.1l-10.9-1.5l2.9-21.4c0.2-1.2-0.7-2.3-1.9-2.5c-0.8-0.1-1.5,0.2-2,0.7
				c-0.2,0.2-0.3,0.4-0.4,0.6c-0.1,0.2-0.1,0.3-0.2,0.5l0,0.1c0,0,0,0,0,0c0,0,0,0,0,0c0.2,0,0.5,0.1,0.7,0.2
				c0.9,0.4,1.4,1.3,1.3,2.3l-2.7,20.3l-0.1,1.1l10.9,1.5c0.3,0,0.5,0.1,0.7,0.1c0.3,0,0.6,0,0.9,0c2.3,0,2.5-0.9,2.5-0.9
				C154.2,102.6,153.7,102.2,153.2,102z"/>
			<path fill="#FED95B" d="M177,108.2l0-0.3l-0.2-1L173.2,83c0-0.2-0.1-0.5-0.2-0.7c-0.3-0.6-0.9-1.1-1.6-1.2
				c-0.9-0.2-1.8,0.1-2.4,0.9l-0.2,0.4l-0.5,0.7c0,0,0.1,0,0.1,0c0.2,0,0.4,0,0.6,0.1c0.2,0,0.3,0.1,0.5,0.2
				c0.7,0.3,1.2,0.9,1.3,1.7l3.8,25.1c0,0,0,0,0,0.1c0,0.1,0,0.3,0,0.4c0.2,0,0.3,0,0.5,0C176.3,110.5,177.1,109.4,177,108.2
				C177,108.2,177,108.2,177,108.2z"/>
			<path fill="#FED95B" d="M194.6,102L194.6,102l-1.1,0.9c-0.8,0.6-1.1,1.6-0.7,2.6l4,10.6c0.1,0.2,0.1,0.5,0.1,0.8
				c0.3,0,0.6,0,0.9-0.1c0.8-0.3,1.4-1.1,1.4-1.9c0-0.3,0-0.6-0.1-0.9L194.6,102z"/>
			<path fill="#FED95B" d="M205,90.7c-0.8-1-2.1-1.2-3.1-0.4l-1,0.8l-8.1,6.4l0,0l-0.6-1.6l-3.5-9.2c-0.1-0.3-0.2-0.5-0.4-0.7
				c-0.6-0.7-1.5-0.9-2.4-0.5c-0.6,0.2-1.1,0.7-1.3,1.2c-0.1,0.2-0.2,0.5-0.2,0.8c0,0,0,0,0.1,0c0.2,0,0.5,0.1,0.7,0.1
				c0.6,0.2,1.1,0.7,1.3,1.3l3,7.9c0.1,0.3,0.3,0.6,0.6,0.9c0.8,0.7,2,0.8,2.9,0.1l6.6-5.2c0.7-0.5,1.5-0.6,2.2-0.4
				c0.4,0.1,0.7,0.4,0.9,0.7c0.5,0.6,0.6,1.5,0.3,2.2l1.6-1.3c0.8-0.7,1.1-1.8,0.6-2.6C205.2,90.9,205.1,90.8,205,90.7z"/>
			<path fill="#FED95B" d="M232.9,106.6c1.2-4-1-8.2-5-9.4c-1.9-0.6-3.8-0.4-5.4,0.4c-0.4,0.2-0.7,0.4-1.1,0.6
				c-0.1,0.1-0.1,0.1-0.2,0.2c-0.1,0.1-0.1,0.1-0.2,0.2c-0.1,0.1-0.3,0.2-0.4,0.3c0,0,0,0-0.1,0.1c-0.5,0.5-1,1.1-1.3,1.7
				c0,0,0,0,0,0c1.8-1.3,4.2-1.8,6.5-1.1c1,0.3,1.9,0.8,2.6,1.4c2,1.7,3.1,4.4,2.5,7.2C231.9,108.1,232.6,107.5,232.9,106.6z"/>
			<path fill="#FED95B" d="M222.7,103.7c-1,0.3-1.7,1.2-2,2.2c-0.3,1-0.1,2,0.5,2.7c0.3,0.4,0.4,0.8,0.4,1.2c0,0,0,0.1,0,0.1
				c0.1,0,0.1,0,0.2-0.1c0.1,0,0.1,0,0.2-0.1c0.1,0,0.1,0,0.1,0c0,0,0.1,0,0.1,0c0.2-0.1,0.4-0.2,0.6-0.3c0-0.1,0.1-0.1,0.1-0.1
				c0,0,0,0,0,0c0.4-0.4,0.7-0.9,0.7-1.5c0-0.5-0.1-1.1-0.4-1.6C222.8,105.6,222.5,104.6,222.7,103.7z"/>
			<path fill="#FED95B" d="M233.6,109.8c-0.3,0-0.6,0-0.9,0.1c-0.6,0.2-1.1,0.6-1.4,1.2c-0.1,0.2-0.2,0.5-0.2,0.7
				c0,0.1,0,0.2-0.1,0.3c0,0,0,0,0.1,0c0.1,0,0.2,0,0.2,0c0.2,0,0.4,0.1,0.6,0.1c0.9,0.3,1.6,1.2,1.5,2.3c0,0.5-0.1,1.1-0.3,1.6
				c-0.1,0.2-0.1,0.4-0.2,0.6c0,0,0,0,0,0c0.1,0,0.2-0.1,0.3-0.2c0.1-0.1,0.3-0.2,0.4-0.3c0.1,0,0.1-0.1,0.2-0.2
				c0.7-0.6,1.3-1.5,1.5-2.4c0.2-0.5,0.3-1,0.3-1.6C235.8,110.9,234.9,109.8,233.6,109.8z"/>
			<path fill="#FED95B" d="M263.7,132.6c0-0.4,0.1-1.2,0.5-2.3c0.5-1.6,0.3-3.2-0.1-4.6c-0.2-0.5-0.4-1-0.7-1.4c0,0-0.1,0-0.1,0.1
				c-0.3,0.3-0.6,0.5-0.9,0.7c-0.8,0.6-1.1,1.6-0.7,2.6c0,0.1,0,0.1,0.1,0.2c0.5,1.3,0.6,2.9,0.1,4.6c-0.1,0.4-0.2,0.8-0.3,1.1
				c-0.1,0.6,0,1.2,0.4,1.7c0.3,0.3,0.4,0.7,0.4,1.2c0,0.1,0,0.1,0,0.2c0.1,0,0.2,0,0.2,0c0.3,0,0.5-0.1,0.7-0.2
				c0.9-0.3,1.5-1.2,1.4-2.2C264.6,133.5,264.3,132.9,263.7,132.6z"/>
			<path fill="#FED95B" d="M267,111.6c0-0.1-0.1-0.1-0.1-0.2c-0.2-0.3-0.3-0.5-0.5-0.8c-0.1-0.2-0.3-0.3-0.4-0.5
				c-0.1-0.1-0.2-0.3-0.4-0.4c-0.2-0.2-0.4-0.3-0.6-0.5c0,0,0,0,0,0c-0.9-0.7-2-1.3-3.2-1.7l-3.8-1l-3.2-0.9c0,0,0,0,0,0
				c-0.1,0-0.3-0.1-0.4-0.1c0,0,0,0-0.1,0c-0.1,0-0.2,0-0.2,0c-0.7,0-1.4,0.5-1.7,1.1c-0.1,0.2-0.2,0.3-0.2,0.5l-0.1,0.5
				c0,0,0.1,0,0.1,0c0.1,0,0.3,0,0.4,0.1c0,0,0,0,0,0l6.9,1.9c1.3,0.3,2.4,1,3.3,1.8c2.5,2.1,3.6,5.5,2.7,8.9c-0.3,1-0.8,2-1.4,2.8
				c0.7-0.5,1.4-1,1.9-1.7c0.8-0.9,1.4-2,1.8-3.3c0,0,0-0.1,0-0.1l0.3-3c-0.1-0.6-0.2-1.1-0.3-1.7
				C267.6,112.8,267.3,112.2,267,111.6z"/>
			<path fill="#FED95B" d="M292.4,114.8c-1.1-0.2-2.2,0.4-2.6,1.4c0,0.1-0.1,0.2-0.1,0.3l0,0.1c0,0,0.1,0,0.1,0c0,0,0,0,0.1,0
				c0.2,0,0.4,0.1,0.5,0.2c0.9,0.4,1.3,1.4,1.1,2.4l-2.9,14.1c-0.5,2.4-1.7,4.5-3.4,6.1c3-1.6,5.3-4.4,6-8l2.9-14.1
				c0.1-0.6,0-1.2-0.3-1.6C293.5,115.3,293,114.9,292.4,114.8z"/>
			<path fill="#FED95B" d="M278.3,136.2c-1.9-0.4-3.4-1.5-4.4-2.9c-1.1-1.6-1.6-3.5-1.1-5.5l2.9-14.1c0.2-0.7-0.1-1.4-0.6-1.9
				c-0.3-0.3-0.7-0.6-1.2-0.7c-1.1-0.2-2.1,0.4-2.5,1.4c0,0.1-0.1,0.2-0.1,0.4l0,0.1c0,0,0,0,0.1,0c0,0,0.1,0,0.1,0
				c0.2,0.1,0.4,0.1,0.6,0.2c0.8,0.5,1.3,1.4,1.1,2.4l-2.9,14.1c-0.5,2.2,0.2,4.4,1.5,6c1,1.2,2.4,2.1,4.1,2.5
				c2.5,0.5,4.8-0.3,6.5-1.9c0.1-0.1,0.2-0.2,0.3-0.3c-0.9,0.4-1.8,0.6-2.8,0.6C279.3,136.4,278.8,136.3,278.3,136.2z"/>
			<path fill="#FED95B" d="M316.9,135.3c0-0.2-0.1-0.4-0.1-0.6c0-0.2,0-0.4-0.1-0.5c0-0.1-0.1-0.2-0.1-0.3c-0.6-2-1.8-3.8-3.5-5
				c1-1.3,1.6-2.8,1.7-4.6c0-0.3,0-0.7,0-1c0-0.3-0.1-0.6-0.2-0.9c0,0-0.4-1.7-1.1-2.7c-0.3-0.4-0.6-0.8-0.9-1.1
				c-1.3-1.3-3.1-2.2-5.2-2.3l-5.6-0.2c0,0,0,0,0,0c-0.1,0-0.1,0-0.1,0c-0.3,0-0.7,0.1-1,0.2c-0.3,0.1-0.5,0.3-0.7,0.5
				c-0.2,0.2-0.3,0.4-0.4,0.7l0.1,0l4.9,0.2c1.9,0.1,3.6,0.8,4.9,2c1.6,1.5,2.6,3.6,2.5,6c-0.1,1.7-0.7,3.3-1.7,4.5c0,0,0,0,0,0
				c0.1,0.1,0.3,0.2,0.4,0.3c2.1,1.6,3.5,4.2,3.4,7.1c-0.1,2.7-1.4,5.1-3.4,6.6c0,0,0,0-0.1,0c3.5-1,6.1-4.2,6.3-8.1
				c0-0.3,0-0.5,0-0.8C316.9,135.4,316.9,135.3,316.9,135.3z"/>
			<path fill="#FED95B" d="M335.8,113.7L335.8,113.7c-1.1-0.5-2.4,0-2.9,1.1l0,0.1l-0.1,0.3c0,0,0,0,0,0c0.1,0,0.2,0.1,0.3,0.1
				c0,0,0.1,0,0.1,0.1c1,0.6,1.4,1.8,1,2.8l-5.5,12.1c-0.2,0.4-0.2,0.9-0.2,1.4l2.1,10c0.1,0.3,0.1,0.7,0,1c0,0,0,0,0,0c0,0,0,0,0,0
				c0.7,0.2,1.4,0.1,2.1-0.6c0.6-0.6,0.8-1.4,0.6-2.2l-2.2-10.5l5.8-12.8C337.4,115.5,336.9,114.2,335.8,113.7z"/>
			<path fill="#FED95B" d="M319.4,117.6L319.4,117.6c-0.9-0.9-2.3-0.8-3.1,0.1c-0.2,0.2-0.3,0.5-0.4,0.7c0,0.1-0.1,0.2-0.1,0.3
				c0,0,0,0,0,0c0.3,0.1,0.6,0.2,0.8,0.5l6.4,5.8c0.1,0.1,0.2,0.2,0.4,0.3c0.4,0.3,0.9,0.3,1.4,0.3c0.8-0.1,1.5-0.5,1.8-1.3l0-0.1
				l-0.9-0.8L319.4,117.6z"/>
			<path fill="#FED95B" d="M352.5,78c-0.4-0.2-0.9-0.3-1.5-0.2c-3.7,1-7.4,1.8-11.2,2.5c-2.7,0.5-1.5,4.5,1.1,4.1
				c2.4-0.4,4.8-0.9,7.2-1.5c1.3-0.3,2.7-0.6,4-1C354.2,81.4,354,78.8,352.5,78z"/>
			<path fill="#FED95B" d="M173.4,55c-4-1.1-8-2.2-12-3.2c-2.6-0.7-3.8,3.4-1.1,4.1c4,1,8,2.1,12,3.2C174.9,59.8,176,55.7,173.4,55z
				"/>
			<path fill="#FED95B" d="M145.8,48.3c-25.6-4.8-51.7-5.1-76,5.1c-2.5,1-1.4,5.1,1.1,4.1c23.7-9.9,48.9-9.8,73.8-5.1
				C147.3,52.9,148.5,48.8,145.8,48.3z"/>
		</g>
	</g>
	<polygon fill="#FFFFFF" points="311.4,599.8 290.2,604.6 311.7,601.8 332.9,597 	"/>
	<polygon fill="#FFFFFF" points="284.1,618 317.8,613 351.2,606 317.4,611 	"/>
</g>
</svg>
